<svg version="1" xmlns="http://www.w3.org/2000/svg" width="933.333" height="933.333" viewBox="0 0 700.000000 700.000000"><path d="M338.5 120.6c-25.2 25.9-23.7 23.7-25.9 38.9-.4 2.2-.8 5.1-1 6.5-.4 2.2-5 30.5-6.1 37-.2 1.4-1.6 9.7-3 18.5s-2.8 17.1-3 18.5c-2.2 13.9-3 16.7-7 23.8-2.3 4.3-11.4 21-20.2 37.2-8.8 16.2-17.2 31.5-18.5 34-4.7 8.5-8.6 15.6-35 64-14.6 26.7-28.4 52.1-30.8 56.5-2.4 4.4-6.2 11.4-8.5 15.5s-6.1 11.2-8.5 15.8c-2.9 5.4-5 8.2-6.2 8.3-1 .1-2.1.2-2.5.3-.5.1-3 .5-5.8 1-2.7.4-6.1.9-7.5 1.1-1.4.2-7.4 1.1-13.5 2-12.1 1.8-14.5 2.1-22.5 3.5-3 .5-7.5 1.2-10 1.5-2.5.3-13 1.9-23.5 3.6-10.4 1.6-20.3 3.1-22 3.3-3.5.5-12.8 2-13.5 2.1-.5.1-8.2 1.3-13.5 2-1.6.2-4.1.6-5.5.9-1.4.2-4.5.7-7 1-2.5.3-7.2 1.1-10.5 1.6s-6.3 1-6.7 1c-.5 0-.8 8.1-.8 18.1v18.1l6.3-.7c3.4-.4 6.4-.8 6.7-1 .3-.2 2.8-.6 5.5-.9 2.8-.4 7.7-1.1 11-1.6s8-1.2 10.5-1.5c2.5-.3 5.6-.8 7-1 1.4-.2 4.5-.7 7-1 2.5-.4 8.6-1.2 13.5-2 13.7-2.1 16.7-2.5 21-3 2.2-.3 5.1-.7 6.5-1 1.4-.3 4.1-.7 6-.9 1.9-.3 6.7-1 10.5-1.6 3.9-.6 8.7-1.3 10.8-1.5 2.1-.2 6.3-.9 9.5-1.4 3.1-.6 8-1.3 10.8-1.6 2.8-.3 6-.7 7.1-.9 1.1-.3 4.4-.7 7.4-1.1 3-.4 5.6-.8 5.9-1 .3-.2 3.2-.6 6.5-1 3.3-.3 9.1-1.2 13-1.8l6.9-1.2 3.4-6c1.9-3.3 5.1-9.2 7.1-13 4.2-7.6 8.4-15.5 12.3-22.5 1.4-2.5 4.1-7.4 6-11 2-3.6 4.7-8.5 6-11 6.6-11.8 19.5-35.7 20.1-37 .4-.8 1.8-3.3 3-5.5 1.3-2.2 4.1-7.2 6.2-11 16.7-30.7 45.3-83 47.8-87.5 1.8-3 3.2-5.7 3.2-6 0-.3.8-1.6 1.6-3 .9-1.4 3.4-5.9 5.6-10 2.2-4.1 5.4-10 7.1-13 13.6-24.6 13-23.1 15.7-40.4 1.4-8.9 3.7-22.6 5-30.6 1.4-8 2.7-16.6 3-19 .3-2.5 1.7-11.3 3.1-19.5 1.4-8.3 2.7-16 2.9-17.2.3-2.2 6.2-10.3 7.4-10.3.5 0 22.4 34.5 38.6 60.7 2.2 3.6 5.1 8.3 6.5 10.4 1.4 2.1 6.3 10 10.9 17.4 4.6 7.5 8.9 13.9 9.5 14.2.5.4 11.8.7 25.1.7l24 .1L479 246c4.7-6.9 13.9-20.4 20.5-30 6.6-9.6 15.5-22.7 19.8-29 4.3-6.3 11.3-16.6 15.4-22.8 4.2-6.1 8.1-11.2 8.6-11.2 1.6 0 8.6 8 8.2 9.3-.2.7-.6 3.6-1 6.6-.4 4.4-3.1 25.6-5 40.1-.5 3.7-1.1 8.7-1.9 16-.3 2.5-.8 6.7-1.2 9.5-.3 2.7-.7 6.1-.9 7.5-.4 3.4-1.5 12.9-2 16-.6 4.2-1.8 13.4-2 16-.2 1.4-.6 5-1 8-.5 4.5-.9 60.4-.5 85.5v6l6.8 7c3.7 3.9 9 9.6 11.7 12.6 4.9 5.3 24.2 26.2 29.9 32.3 1.6 1.7 4.6 4.9 6.8 7.2l3.9 4.1-16.6 21.4c-9.2 11.8-17.4 21.6-18.3 21.9-.9.3-16.8.5-35.2.5l-33.5-.2-25.8 16.6c-14.1 9.1-27.5 17.7-29.7 19.1-2.2 1.4-18.7 12-36.7 23.6-27.6 17.7-60.5 38.8-128.3 81.9-28.1 17.9-43 27.5-75 48.4-19 12.3-37.2 24.2-40.5 26.3l-6 3.8h66.6l31.2-20.1c17.2-11 44.9-29 61.7-39.9 36-23.4 43.5-28.2 72-46.5 31.9-20.5 33.8-21.7 43-27.7 13-8.4 64.3-41.3 65.8-42.2 1.4-.8 1.4-.9-.4 26.4-.2 4.7-.7 11.9-.9 16-.8 15.4-1.5 27.7-2 33.5-.5 6.4-1.2 18.7-3 48.5-.3 5.2-.7 12.6-1 16.5-.3 3.8-.7 11.7-1.1 17.5-.3 5.8-.7 12.2-.8 14.3l-.3 3.7 17.6-.2 17.6-.3.1-3c.7-14.2 1.6-29.5 1.9-33.3.2-2.6.6-9.7 1-15.7.3-6.1.8-14.4 1-18.5.3-4.1.7-11.3 1-16 .5-9 1.3-21.5 2-34 .3-4.1.7-11.8 1-17 .3-5.2.7-12.9 1-17 .2-4.1.7-12.2 1.1-18 .3-5.8.8-10.7 1.1-11 .2-.3 12.4-.5 27-.6h26.6l3-3.8c1.6-2 6.7-8.5 11.2-14.4 13.8-18.1 24.4-32.1 36-47.2 6.1-8 11.5-15.1 11.9-15.8.5-.8-1.2-3.3-4.7-7-3.1-3.1-6.8-7.1-8.3-8.7-1.5-1.7-8.4-9-15.3-16.4-6.9-7.4-16.2-17.2-20.6-22-4.4-4.7-11-11.7-14.7-15.6l-6.7-7v-34.2c-.1-18.8.4-37.7.9-42 1.4-9.9 1.8-13.7 2.5-19.3.3-2.5 1.2-9.7 2.1-16 1.4-10.9 1.7-13.2 2.8-22.5 1.2-10.4 1.9-15.2 2.2-16.9.2-1.1.6-4.4.9-7.5.3-3.1.7-6.5.9-7.6.2-1.1.7-5.2 1.2-9 .4-3.9.8-7.2.9-7.5.1-.3.5-3.7.9-7.5.5-3.9 1-7.7 1.1-8.5.2-.8.5-4.2.9-7.5l.5-6-16-14c-8.8-7.7-17-14.9-18.2-16-1.2-1.1-5.9-5.3-10.4-9.3l-8.1-7.3-13 18.8c-7.1 10.3-22.2 32.3-33.5 48.8s-24.5 35.7-29.3 42.7l-8.8 12.8h-12.1l-19.9-31.8c-10.9-17.4-22.8-36.5-26.4-42.3-3.7-5.9-12.3-19.7-19.2-30.8-6.9-11-12.7-20.1-13-20.1-.3 0-10.8 10.7-23.5 23.6z"/></svg>