<svg xmlns="http://www.w3.org/2000/svg" viewBox="0 0 176.7 43.3"><path d="M0 43.2h27v-27H0v27zm6-15h6v-6h3v6h6v3h-6v6h-3v-6H6v-3zm0 3.5h3v1H6v-1zm0 1.5h3v1H6v-1zm0 1.5h5.5v1H6v-1zm0 1.5h5.5v1H6v-1zm31.5-12.4h-4V37h3.6c2.1 0 4-.5 5.1-1.7 1.2-1.2 1.8-2.8 1.8-5 0-2-.5-3.6-1.7-4.8-1.2-1.1-2.8-1.7-4.8-1.7zm3.4 10.5c-1 .8-2.3 1.3-4.1 1.3H35V25.1h2.1c1.7 0 3 .5 3.8 1.3s1.3 2.1 1.3 4c.1 1.8-.3 3.1-1.3 3.9zm6-10.5h1.5V37h-1.5zM58 31.5h2.8v4.1c-.8.2-1.8.2-2.6.2-1.7 0-3-.5-3.8-1.3-.8-1-1.3-2.3-1.3-4.1 0-1.7.5-3 1.3-4s2.1-1.5 3.8-1.5c1.2 0 2.3.3 3.5.8l.7-1.3c-1.2-.5-2.5-.8-4-.8-1.3 0-2.6.3-3.6.8s-1.8 1.3-2.3 2.3-.8 2.3-.8 3.6c0 2.1.5 3.8 1.7 5s2.6 1.8 4.6 1.8c1 0 1.8 0 2.5-.2s1.5-.3 2.1-.5V30H58v1.5zm7.6-7.7h1.5V37h-1.5zm13.4 0H69v1.5h4.2V37h1.5V25.3H79zm5.3 0L79 37h1.7l1.7-4.1h5.3l1.7 4.1h1.7L86 23.8h-1.7zm-1.5 7.6l1.5-4.1c.2-.7.5-1.3.5-2 .2.8.5 1.3.7 2l1.5 4.1h-4.2zm11.4-7.6h-1.5V37h7.3v-1.3h-5.8zm11.4 2.3h3.6V37h2.8V26.1h3.5v-2.3h-9.9zm20.5 3.8c.5-.7.7-1.3.7-2.1 0-1.3-.5-2.3-1.3-3s-2.1-1-4-1h-3.8V37h2.8v-5.1h1.5l3.1 5.1h3.1c-.7-.8-1.8-2.8-4-5.8.9-.3 1.4-.8 1.9-1.3zm-2.8-.7c-.5.3-1 .5-2 .5h-.8v-3.6h.8c.8 0 1.5.2 2 .3.5.3.7.7.7 1.3-.1.9-.4 1.2-.7 1.5zm6.6 7.8h7.6v-2.3h-5v-3.3h4.7v-2.3h-4.7v-3h5v-2.3h-7.6zm19.5-7c0 .7 0 2 .2 3.6l-5.8-9.9h-3.6V37h2.5v-6.1c0-.8 0-2-.2-3.8l5.8 9.9h3.6V23.8h-2.5V30zm9.9-6.2h-4.1V37h3.8c2.3 0 4.1-.5 5.3-1.7s1.8-2.8 1.8-5c0-2-.7-3.6-1.8-4.8-1.2-1.1-2.8-1.7-5-1.7zm-.2 10.9H158v-8.6h1.5c2.5 0 3.8 1.5 3.8 4.3s-1.3 4.3-4.2 4.3zm14.4-5.3c-1-.5-1.5-.8-1.8-1s-.5-.3-.5-.5c-.2-.2-.2-.3-.2-.7 0-.3.2-.7.5-1 .3-.2.7-.3 1.2-.3s.8 0 1.3.2 1 .3 1.8.7l.8-2.1c-.7-.3-1.3-.5-2-.7s-1.3-.2-2-.2c-1.3 0-2.5.3-3.3 1s-1.2 1.7-1.2 2.8c0 .7.2 1.2.3 1.7.2.5.5.8 1 1.2.3.3 1 .7 1.8 1.2.8.3 1.5.7 1.7.8.3.2.5.3.7.7.2.2.2.5.2.7 0 .5-.2.8-.5 1s-.8.3-1.5.3c-.5 0-1.2 0-1.7-.2-.7-.2-1.3-.5-2.3-.8v2.6c1.2.5 2.3.8 3.8.8s2.6-.3 3.6-1c.8-.7 1.3-1.7 1.3-2.8 0-1.2-.2-2-.7-2.5-.3-.8-1.1-1.3-2.3-1.9z"/></svg>