<svg xmlns="http://www.w3.org/2000/svg" viewBox="0 0 125 43.3"><path d="M4.8 42.933H0V12.44l4.8.307v30.186m7.853 0h-4.8V21.187l4.8.266v21.48zm-2.4-28.36A2.76 2.76 0 0 1 13 17.32a2.76 2.76 0 0 1-2.747 2.747 2.76 2.76 0 0 1-2.746-2.747 2.76 2.76 0 0 1 2.746-2.747M24.107 25.56v4.8h-3.6v12.56h-4.8V19.067c0-3.64 3.013-6.92 6.573-6.92 1.2 0 2.173.346 2.4.506l-.2 4.6h-2.2c-.973 0-1.787.814-1.787 1.814v6.506h3.614m6.746 4.174h3.6v-2.24c0-1-.813-1.814-1.786-1.814-1 0-1.814.814-1.814 1.814v2.24zm-4.8-2.254a6.612 6.612 0 0 1 6.614-6.613c3.64 0 6.573 2.973 6.573 6.613v4.64c0 1.36-1.08 2.4-2.4 2.4h-6v2.094c0 1 .813 1.813 1.813 1.813h4.6l.16 4.067-4.333.653c-4.173.693-7.04-2.907-7.04-6.533v-9.134m17.307 15.44V12.64h3.093v9.213c.853-.266 2.2-.386 3.133-.386 3.294 0 5.84 2.973 5.84 6.346v15.134H52.4V27.813c0-1.666-1.36-2.973-3.013-2.973H46.44v18.107h-3.093m23.4-5.854v-5.226h-2.974A2.95 2.95 0 0 0 60.8 34.84v2.24c0 1.667 1.32 3.013 2.973 3.013 1.654.014 2.974-1.333 2.974-3zm0-9.786c0-1.747-.814-3.134-3.014-2.907h.04c-1.24.04-2.826.2-4.146.267-.04-1.12-.08-1.547-.12-2.4 1.04-.387 2.56-.774 3.826-.814 3.867-.08 6.427 3.054 6.427 6.427v9.213c0 3.334-2.667 6.08-6 6.08s-6.08-2.746-6.08-6.08V35.2c0-3.333 2.28-5.84 6.08-5.84 1.427 0 2.173.16 2.973.387v-2.44m11.707-5.84c3.333 0 6.08 2.706 6.08 6.08v.386c-1.2.04-2.173.04-3.053.08v-.466c0-1.627-1.36-2.974-3.014-2.974-1.626 0-2.946 1.36-2.946 2.974v9.68c0 1.706 1.32 2.973 2.946 2.973 1.627 0 2.974-1.24 3.014-2.867 1.506.12 2.946.2 3.053.2-.16 3.214-2.867 5.76-6.08 5.76-3.333 0-6.04-2.706-6.04-6.08v-9.68c0-3.36 2.707-6.066 6.04-6.066m18.267 21.466l-5.88-10.253c-.587-1-.587-1.12.12-2.32l5.186-8.587h3.52l-5.84 9.907 6.307 11.267h-3.413zM90.053 12.72v30.227H86.96V12.72h3.093m13.8 18.107h5.96v-3.254c0-1.666-1.36-3.013-2.973-3.013-1.667 0-2.973 1.36-2.973 3.013v3.254zm-3.093-3.254c0-3.36 2.707-6.12 6.08-6.12 3.333 0 6.04 2.747 6.04 6.12v4.76c0 .894-.693 1.547-1.547 1.547h-7.466v3.293c0 1.667 1.32 3.014 2.973 3.014h3.907c.04 1 .08 1.706.16 2.4l-3.72.586c-3.787.654-6.427-2.626-6.427-6v-9.6m17.92 15.36h-3.093V27.84c0-3.36 2.626-6.507 6.506-6.427 1.32.04 2.134.347 3.014.774-.04.933-.08 1.706-.12 2.4l-3.374-.08c-1.626 0-2.946 1.746-2.946 3.333v15.093"/></svg>