<svg xmlns="http://www.w3.org/2000/svg" viewBox="0 0 150.3 43.3"><path d="M109.4 30.4c.4-.3.8-.4 1.1-.6.9-.6 1.5-1.4 1.8-2.4.7-3.1-1.2-5.7-4.5-5.9-3.4-.2-6.8-.1-10.2-.2 0 0-.1 0-.2.1V25h.7c1.1-.1 1-.1 1 1v9.2c0 .7-.1 1.1-.9.9h-.7v3.6c3.8 0 7.5.1 11.1 0 2-.1 3.6-1.2 4.2-3.3.7-2.6-.5-4.8-3.4-6zm-5-5.5c2-.2 2.9.4 3 1.7.1 1.2-.5 2-1.8 2.2-1.8.3-1.8.2-1.8-2v-.2c.4-.5-.5-1.6.6-1.7zm1.8 11.2h-2.3v-3.3c0-.2.3-.4.5-.5h1.8c1.1.1 1.7.9 1.7 2s-.6 1.7-1.7 1.8zM17.7 25l.1-.1v-3.6h-7.3v3.8h1.6c-1 3.5-1.9 6.9-2.9 10.4H9c-.8-3.6-1.7-7-2.6-10.5H8v-3.7H0v3.8c1.2-.4 1.3.4 1.5 1.2 1.4 4.3 2.7 8.6 4.1 12.9.2.6.4.8 1.1.8 1.5-.1 3-.1 4.5 0 .6 0 .9-.2 1.1-.8 1.3-4.3 2.7-8.6 4-13 .2-.7.4-1.4 1.4-1.2zm26.8 10.2v-5.7c0-1.9-1-3.1-2.7-3.5-2-.4-3.8.1-5.1 1.7-.1.1-.1.3-.2.4l-.2-.2c-.1-.6-.1-1.1-.2-1.7h-5.4V30c.4 0 .7.1 1 .1v6c-.4 0-.7.1-1 .1v3.7h6.9v-3.7c-.3 0-.6-.1-.9-.1v-4.2c0-1.1.7-1.7 1.5-1.7s1.2.5 1.2 1.7v8h6v-3.8c-.4 0-.7 0-1.1-.1.2-.3.2-.5.2-.8zm24.5-9h-6v3.7c.3 0 .6.1 1 .1v2.2c0 .9 0 1.8-.1 2.6-.1.7-.5 1.2-1.2 1.2s-1.2-.4-1.3-1.2v-8.7h-6v3.7c.4 0 .7 0 1.1.1v.9c0 1.9 0 3.9.1 5.8.1 2.2 1.6 3.5 3.7 3.6 1.6 0 3-.4 4.2-1.7 0 .5.1.9.1 1.3h5.6V36c-.4 0-.7 0-1.1-.1-.1-3.1-.1-6.4-.1-9.7zm71.2 8.9v-5c0-1.2-.6-2.1-1.5-2.9-2.2-1.7-6.6-1.8-8.8-.2-1.2.9-1.7 2.1-1.6 3.6h4.4c.5-1.4 1-1.9 1.8-1.7.8.2 1.2 1.1.8 2.5h-2c-1.3.1-2.6.3-3.8 1-1.7 1.1-2.3 3.4-1.5 5.5.6 1.7 2.4 2.5 4.5 2.2 1.2-.2 2.2-.8 3-1.8.1.6.1 1 .2 1.5h5.7v-3.7c-.4 0-.7-.1-1.1-.1-.1-.3-.1-.6-.1-.9zm-4.8-.2v.8c-.1.7-.4 1.3-1.2 1.4-.4 0-1-.2-1.3-.5-.5-.6-.4-1.3 0-2 .4-.6 1.5-1.1 2.1-.8.3.1.3.6.5 1l-.1.1zm-111.5-9c-3.8-.5-6.7 1.5-7.5 5-.3 1.6-.3 3.1 0 4.7.4 1.6 1.2 3 2.7 3.7 2.5 1.3 5.1 1.4 7.6.1 1.7-.8 2.5-2.3 2.7-4.2h-4.1c-.5 0-.7.1-.8.6-.2.8-.8 1.2-1.6 1.1-.8 0-1.3-.5-1.5-1.2-.1-.5-.2-1-.3-1.7h6.4c2.2 0 2.2 0 2-2.2-.2-3.5-2.2-5.5-5.6-5.9zm-2.4 5.5c0-.7.1-1.4.7-1.8.6-.4 1.2-.4 1.8-.1.7.4.9 1 .8 1.9h-3.3zm74.4.4c-.3-3.4-2.3-5.5-5.7-5.9-3.9-.5-6.9 1.6-7.5 5.4-.2 1.3-.1 2.7.1 4 .4 2.6 2 4.2 4.6 4.8 1.6.4 3.3.3 4.9-.3 2-.7 3.4-2.5 3.4-4.6h-4c-.5 0-.7.1-.8.6-.2.8-.8 1.1-1.6 1.1s-1.3-.4-1.5-1.2c-.1-.5-.2-1.1-.3-1.8H96c0-.7 0-1.4-.1-2.1zm-8.1-.4c-.1-.7.1-1.3.6-1.7.6-.4 1.2-.4 1.8-.1.7.4.8 1 .9 1.9-1.2-.1-2.2-.1-3.3-.1zm33.6-5.5c-3.8-.5-6.8 1.6-7.5 5.4-.3 1.6-.2 3.1.3 4.7.6 1.9 1.9 3.2 3.8 3.8 1.7.5 3.4.5 5.1.1 2.3-.6 3.8-2.4 3.9-4.7h-3.8c-.5 0-.8.1-.9.6-.2.8-.8 1.1-1.6 1.1s-1.3-.4-1.5-1.1c-.2-.6-.2-1.1-.4-1.9h7.8c.4 0 .7.1.8-.5-.1-3.4-1.2-6.9-6-7.5zm-2.5 5.5c0-.8.1-1.4.8-1.9.6-.4 1.2-.3 1.8 0 .7.4.8 1.1.8 1.9h-3.4zm-66.6-9.5c-1.4.3-2.6.6-3.9.9-.5.1-.7.3-.6.8v2.6h-1.5V30c.4 0 .8.1 1.1.1v6.8c0 1.9.7 2.9 2.5 3.1 1.3.2 2.7 0 4.1-.1.1 0 .4-.2.4-.4v-3.1c-1.4.1-2-.2-2-1.1-.1-1.7 0-3.5 0-5.3h2.1v-3.9h-2.2v-4.2zm98 8.1v-3.8h-2.1V22c-1.4.3-2.6.6-3.9.9-.5.1-.6.3-.6.8v2.6c-.6 0-1 .1-1.5.1v3.7c.4 0 .7.1 1.1.1v1.1c0 2 0 4.1.1 6.1.1 1.6.7 2.5 2.3 2.7 1.4.2 2.8 0 4.2 0 .1 0 .4-.2.4-.4v-3.1c-1.4.1-2-.2-2-1.2-.1-1.7 0-3.4 0-5.2.6-.2 1.3-.2 2-.2zm-69.7-4c-1.7-.1-3 .4-3.8 2 0-.6-.1-1.2-.1-1.8h-5.3V30c.4 0 .7.1 1 .1v6c-.4 0-.7.1-1 .1v3.7h7.5v-3.8c-.5 0-1 0-1.6-.1v-.5c0-.9 0-1.7.1-2.6.1-1.3.6-2.1 1.9-2.4.7-.2 1.4-.1 2.2-.2v-3.5c0-.6-.3-.7-.9-.8z"/></svg>