<?xml version="1.0" standalone="no"?>
<!DOCTYPE svg PUBLIC "-//W3C//DTD SVG 20010904//EN"
 "http://www.w3.org/TR/2001/REC-SVG-20010904/DTD/svg10.dtd">
<svg version="1.0" xmlns="http://www.w3.org/2000/svg"
 width="700.000000pt" height="700.000000pt" viewBox="0 0 700.000000 700.000000"
 preserveAspectRatio="xMidYMid meet">
<metadata>
Created by potrace 1.11, written by Peter Selinger 2001-2013
</metadata>
<g transform="translate(0.000000,700.000000) scale(0.100000,-0.100000)"
fill="#000000" stroke="none">
<path d="M3385 5794 c-252 -259 -237 -237 -259 -389 -4 -22 -8 -51 -10 -65 -4
-22 -50 -305 -61 -370 -2 -14 -16 -97 -30 -185 -14 -88 -28 -171 -30 -185 -22
-139 -30 -167 -70 -238 -23 -43 -114 -210 -202 -372 -88 -162 -172 -315 -185
-340 -47 -85 -86 -156 -350 -640 -146 -267 -284 -521 -308 -565 -24 -44 -62
-114 -85 -155 -23 -41 -61 -112 -85 -158 -29 -54 -50 -82 -62 -83 -10 -1 -21
-2 -25 -3 -5 -1 -30 -5 -58 -10 -27 -4 -61 -9 -75 -11 -14 -2 -74 -11 -135
-20 -121 -18 -145 -21 -225 -35 -30 -5 -75 -12 -100 -15 -25 -3 -130 -19 -235
-36 -104 -16 -203 -31 -220 -33 -35 -5 -128 -20 -135 -21 -5 -1 -82 -13 -135
-20 -16 -2 -41 -6 -55 -9 -14 -2 -45 -7 -70 -10 -25 -3 -72 -11 -105 -16 -33
-5 -63 -10 -67 -10 -5 0 -8 -81 -8 -181 l0 -181 63 7 c34 4 64 8 67 10 3 2 28
6 55 9 28 4 77 11 110 16 33 5 80 12 105 15 25 3 56 8 70 10 14 2 45 7 70 10
25 4 86 12 135 20 137 21 167 25 210 30 22 3 51 7 65 10 14 3 41 7 60 9 19 3
67 10 105 16 39 6 87 13 108 15 21 2 63 9 95 14 31 6 80 13 108 16 28 3 60 7
71 9 11 3 44 7 74 11 30 4 56 8 59 10 3 2 32 6 65 10 33 3 91 12 130 18 l69
12 34 60 c19 33 51 92 71 130 42 76 84 155 123 225 14 25 41 74 60 110 20 36
47 85 60 110 66 118 195 357 201 370 4 8 18 33 30 55 13 22 41 72 62 110 167
307 453 830 478 875 18 30 32 57 32 60 0 3 8 16 16 30 9 14 34 59 56 100 22
41 54 100 71 130 136 246 130 231 157 404 14 89 37 226 50 306 14 80 27 166
30 190 3 25 17 113 31 195 14 83 27 160 29 172 3 22 62 103 74 103 5 0 224
-345 386 -607 22 -36 51 -83 65 -104 14 -21 63 -100 109 -174 46 -75 89 -139
95 -142 5 -4 118 -7 251 -7 l240 -1 85 125 c47 69 139 204 205 300 66 96 155
227 198 290 43 63 113 166 154 228 42 61 81 112 86 112 16 0 86 -80 82 -93 -2
-7 -6 -36 -10 -66 -4 -44 -31 -256 -50 -401 -5 -37 -11 -87 -19 -160 -3 -25
-8 -67 -12 -95 -3 -27 -7 -61 -9 -75 -4 -34 -15 -129 -20 -160 -6 -42 -18
-134 -20 -160 -2 -14 -6 -50 -10 -80 -5 -45 -9 -604 -5 -855 l0 -60 68 -70
c37 -39 90 -96 117 -126 49 -53 242 -262 299 -323 16 -17 46 -49 68 -72 l39
-41 -166 -214 c-92 -118 -174 -216 -183 -219 -9 -3 -168 -5 -352 -5 l-335 2
-258 -166 c-141 -91 -275 -177 -297 -191 -22 -14 -187 -120 -367 -236 -276
-177 -605 -388 -1283 -819 -281 -179 -430 -275 -750 -484 -190 -123 -372 -242
-405 -263 l-60 -38 333 0 333 0 312 201 c172 110 449 290 617 399 360 234 435
282 720 465 319 205 338 217 430 277 130 84 643 413 658 422 14 8 14 9 -4
-264 -2 -47 -7 -119 -9 -160 -8 -154 -15 -277 -20 -335 -5 -64 -12 -187 -30
-485 -3 -52 -7 -126 -10 -165 -3 -38 -7 -117 -11 -175 -3 -58 -7 -122 -8 -143
l-3 -37 176 2 176 3 1 30 c7 142 16 295 19 333 2 26 6 97 10 157 3 61 8 144
10 185 3 41 7 113 10 160 5 90 13 215 20 340 3 41 7 118 10 170 3 52 7 129 10
170 2 41 7 122 11 180 3 58 8 107 11 110 2 3 124 5 270 6 l266 0 30 38 c16 20
67 85 112 144 138 181 244 321 360 472 61 80 115 151 119 158 5 8 -12 33 -47
70 -31 31 -68 71 -83 87 -15 17 -84 90 -153 164 -69 74 -162 172 -206 220 -44
47 -110 117 -147 156 l-67 70 0 342 c-1 188 4 377 9 420 14 99 18 137 25 193
3 25 12 97 21 160 14 109 17 132 28 225 12 104 19 152 22 169 2 11 6 44 9 75
3 31 7 65 9 76 2 11 7 52 12 90 4 39 8 72 9 75 1 3 5 37 9 75 5 39 10 77 11
85 2 8 5 42 9 75 l5 60 -160 140 c-88 77 -170 149 -182 160 -12 11 -59 53
-104 93 l-81 73 -130 -188 c-71 -103 -222 -323 -335 -488 -113 -165 -245 -357
-293 -427 l-88 -128 -61 0 -60 0 -199 318 c-109 174 -228 365 -264 423 -37 59
-123 197 -192 308 -69 110 -127 201 -130 201 -3 0 -108 -107 -235 -236z"/>
</g>
</svg>
