<?xml version="1.0" encoding="utf-8"?>
<!-- Generator: Adobe Illustrator 21.1.0, SVG Export Plug-In . SVG Version: 6.00 Build 0)  -->
<svg version="1.1" id="Layer_1" xmlns="http://www.w3.org/2000/svg" xmlns:xlink="http://www.w3.org/1999/xlink" x="0px" y="0px"
	 viewBox="0 0 98.7 43.3" style="enable-background:new 0 0 98.7 43.3;" xml:space="preserve">
<path d="M88.9,43.2h-6.2v-27h6.2v9.3l3.1-9.3H98l-3.6,10.8l4.3,16.1h-6.3l-3.5-12.8V43.2z M81.4,37.2h-6.5v-5.8h6.5v-5.2h-6.5v-4.8
	h6.5v-5.2H68.8v27h12.5V37.2z M67.5,21.4v-5.2H50.1l-2.2,12.7l-1.8-12.7h-5.6l-1.7,12.7l-2.2-12.7h-6.1l0.4,2.4
	c-0.9-1.5-2.5-2.3-4.2-2.4H15.6v17l-2.5-17H3.9L0,43.2h5.9l0.6-4.1h3.9l0.6,4.1h15.6c2.8,0,5.1-2.3,5-5.2V23.8l3,19.4h6.5l2.2-15.4
	l2.2,15.4H52l2.8-18.6v18.6h12.7v-6.1h-6.5v-5.8h6.5v-5.2h-6.5v-4.8H67.5L67.5,21.4z M7.4,33.3l1.2-7.7l1.1,7.7H7.4z M25.7,35.2
	c0,1.1-0.9,1.9-1.9,1.9h-1.9V21.4h1.9c1.1,0,1.9,0.9,1.9,1.9V35.2z"/>
</svg>
