<?xml version="1.0" encoding="utf-8"?>
<!-- Generator: Adobe Illustrator 21.1.0, SVG Export Plug-In . SVG Version: 6.00 Build 0)  -->
<svg version="1.1" id="Layer_1" xmlns="http://www.w3.org/2000/svg" xmlns:xlink="http://www.w3.org/1999/xlink" x="0px" y="0px"
	 viewBox="0 0 58 58" style="enable-background:new 0 0 58 58;" xml:space="preserve">
<g>
	<path d="M48.1,42.7l5.2-6.8l-5.9-6.3V24l1.5-11.9l-4.4-3.9l-7,10.2h-1L30,8l-3.9,4l-1.5,9.2L13.8,41L0,43.1v3l15.7-2.3l11.8-21.6
		l1.4-8.7l0.6-0.7l5.4,8.6h4.1l6-8.8l0.7,0.7l-1.3,10.5l0,7.1l4.9,5.3l-2.8,3.6c-1.9,0-3.9,0-5.8,0C35.5,43.2,30,46.7,24.8,50
		c-4.1,2.6-8.3,5.3-12.4,8h5.5c2.9-1.8,5.7-3.7,8.5-5.5c4.7-3,9.5-6.1,14.3-9.2L39.8,58h2.9l0.9-15.3H48.1z"/>
</g>
</svg>
