<?xml version="1.0" encoding="utf-8"?>
<!-- Generator: Adobe Illustrator 21.1.0, SVG Export Plug-In . SVG Version: 6.00 Build 0)  -->
<svg version="1.1" id="Layer_1" xmlns="http://www.w3.org/2000/svg" xmlns:xlink="http://www.w3.org/1999/xlink" x="0px" y="0px"
	 viewBox="0 0 57 43.3" style="enable-background:new 0 0 57 43.3;" xml:space="preserve">
<g>
	<path d="M9.3,43.3H4.4v-19H0v-5.4h13.7v5.4H9.3V43.3z"/>
	<path d="M26.4,43.3l-0.9-4.6h-5.9l-0.9,4.6h-5.4l5.9-24.5h6.5l6,24.5H26.4z M24.5,33.4l-0.8-4c-0.2-0.9-0.4-2-0.7-3.5
		c-0.3-1.4-0.4-2.4-0.5-3c-0.1,0.6-0.2,1.5-0.4,2.8c-0.2,1.3-0.7,3.9-1.5,7.7H24.5z"/>
	<path d="M50,43.3h-5.7l-3.5-7.6l-3.5,7.6h-5.5l6-12.5l-5.6-11.9h5.4l3.3,7.5l3.1-7.5h5.6l-5.7,12.4L50,43.3z"/>
	<path d="M52.1,43.3V18.9H57v24.4H52.1z"/>
</g>
</svg>
