<?xml version="1.0" encoding="utf-8"?>
<!-- Generator: Adobe Illustrator 21.1.0, SVG Export Plug-In . SVG Version: 6.00 Build 0)  -->
<svg version="1.1" id="Layer_1" xmlns="http://www.w3.org/2000/svg" xmlns:xlink="http://www.w3.org/1999/xlink" x="0px" y="0px"
	 viewBox="0 0 176.7 43.3" style="enable-background:new 0 0 176.7 43.3;" xml:space="preserve">
<path d="M0,43.2h27v-27H0V43.2z M6,28.2h6v-6h3v6h6v3h-6v6h-3v-6H6V28.2z M6,31.7h3v1H6V31.7z M6,33.2h3v1H6V33.2z M6,34.7h5.5v1H6
	V34.7z M6,36.2h5.5v1H6V36.2z"/>
<g>
	<path d="M37.5,23.8h-4V37h3.6c2.1,0,4-0.5,5.1-1.7c1.2-1.2,1.8-2.8,1.8-5c0-2-0.5-3.6-1.7-4.8C41.1,24.4,39.5,23.8,37.5,23.8z
		 M40.9,34.3c-1,0.8-2.3,1.3-4.1,1.3H35V25.1h2.1c1.7,0,3,0.5,3.8,1.3s1.3,2.1,1.3,4C42.3,32.2,41.9,33.5,40.9,34.3z"/>
	<rect x="46.9" y="23.8" width="1.5" height="13.2"/>
	<path d="M58,31.5h2.8v4.1c-0.8,0.2-1.8,0.2-2.6,0.2c-1.7,0-3-0.5-3.8-1.3c-0.8-1-1.3-2.3-1.3-4.1c0-1.7,0.5-3,1.3-4
		s2.1-1.5,3.8-1.5c1.2,0,2.3,0.3,3.5,0.8l0.7-1.3c-1.2-0.5-2.5-0.8-4-0.8c-1.3,0-2.6,0.3-3.6,0.8s-1.8,1.3-2.3,2.3s-0.8,2.3-0.8,3.6
		c0,2.1,0.5,3.8,1.7,5s2.6,1.8,4.6,1.8c1,0,1.8,0,2.5-0.2s1.5-0.3,2.1-0.5V30H58V31.5z"/>
	<rect x="65.6" y="23.8" width="1.5" height="13.2"/>
	<polygon points="79,23.8 69,23.8 69,25.3 73.2,25.3 73.2,37 74.7,37 74.7,25.3 79,25.3 	"/>
	<path d="M84.3,23.8L79,37h1.7l1.7-4.1h5.3l1.7,4.1h1.7L86,23.8H84.3z M82.8,31.4l1.5-4.1c0.2-0.7,0.5-1.3,0.5-2
		c0.2,0.8,0.5,1.3,0.7,2l1.5,4.1H82.8z"/>
	<polygon points="94.2,23.8 92.7,23.8 92.7,37 100,37 100,35.7 94.2,35.7 	"/>
	<polygon points="105.6,26.1 109.2,26.1 109.2,37 112,37 112,26.1 115.5,26.1 115.5,23.8 105.6,23.8 	"/>
	<path d="M126.1,29.9c0.5-0.7,0.7-1.3,0.7-2.1c0-1.3-0.5-2.3-1.3-3s-2.1-1-4-1h-3.8V37h2.8v-5.1h1.5l3.1,5.1h3.1
		c-0.7-0.8-1.8-2.8-4-5.8C125.1,30.9,125.6,30.4,126.1,29.9z M123.3,29.2c-0.5,0.3-1,0.5-2,0.5h-0.8v-3.6h0.8c0.8,0,1.5,0.2,2,0.3
		c0.5,0.3,0.7,0.7,0.7,1.3C123.9,28.6,123.6,28.9,123.3,29.2z"/>
	<polygon points="129.9,37 137.5,37 137.5,34.7 132.5,34.7 132.5,31.4 137.2,31.4 137.2,29.1 132.5,29.1 132.5,26.1 137.5,26.1 
		137.5,23.8 129.9,23.8 	"/>
	<path d="M149.4,30c0,0.7,0,2,0.2,3.6l-5.8-9.9h-3.6V37h2.5v-6.1c0-0.8,0-2-0.2-3.8l5.8,9.9h3.6V23.8h-2.5V30z"/>
	<path d="M159.3,23.8h-4.1V37h3.8c2.3,0,4.1-0.5,5.3-1.7s1.8-2.8,1.8-5c0-2-0.7-3.6-1.8-4.8C163.1,24.4,161.5,23.8,159.3,23.8z
		 M159.1,34.7H158v-8.6h1.5c2.5,0,3.8,1.5,3.8,4.3S162,34.7,159.1,34.7z"/>
	<path d="M173.5,29.4c-1-0.5-1.5-0.8-1.8-1s-0.5-0.3-0.5-0.5c-0.2-0.2-0.2-0.3-0.2-0.7c0-0.3,0.2-0.7,0.5-1c0.3-0.2,0.7-0.3,1.2-0.3
		s0.8,0,1.3,0.2s1,0.3,1.8,0.7l0.8-2.1c-0.7-0.3-1.3-0.5-2-0.7s-1.3-0.2-2-0.2c-1.3,0-2.5,0.3-3.3,1s-1.2,1.7-1.2,2.8
		c0,0.7,0.2,1.2,0.3,1.7c0.2,0.5,0.5,0.8,1,1.2c0.3,0.3,1,0.7,1.8,1.2c0.8,0.3,1.5,0.7,1.7,0.8c0.3,0.2,0.5,0.3,0.7,0.7
		c0.2,0.2,0.2,0.5,0.2,0.7c0,0.5-0.2,0.8-0.5,1s-0.8,0.3-1.5,0.3c-0.5,0-1.2,0-1.7-0.2c-0.7-0.2-1.3-0.5-2.3-0.8v2.6
		c1.2,0.5,2.3,0.8,3.8,0.8s2.6-0.3,3.6-1c0.8-0.7,1.3-1.7,1.3-2.8c0-1.2-0.2-2-0.7-2.5C175.5,30.5,174.7,30,173.5,29.4z"/>
</g>
</svg>
