<?xml version="1.0" encoding="utf-8"?>
<!-- Generator: Adobe Illustrator 21.1.0, SVG Export Plug-In . SVG Version: 6.00 Build 0)  -->
<svg version="1.1" id="Layer_1" xmlns="http://www.w3.org/2000/svg" xmlns:xlink="http://www.w3.org/1999/xlink" x="0px" y="0px"
	 viewBox="0 0 165.3 43.3" style="enable-background:new 0 0 165.3 43.3;" xml:space="preserve">
<g>
	<path d="M66.4,42.1c-4.8,0-9.1-3.3-9.1-11c0-6.8,4.2-10.4,8.9-10.4c3.9,0,5.1,1.6,5.5,3.9h0.7c0,0,0.4-4,0.6-5.2h-0.7
		c-0.3,0.3-0.4,0.6-0.8,0.9c-1.7-0.7-3.7-1-5.4-1c-7.6,0-12.6,5.2-12.6,12c0,8,5.3,12.3,12.5,12.3c1.9,0,3.4-0.4,4.3-0.4
		c0.4,0,0.9,0,1.3,0.1l0,0l1.8-4.8l-0.8-0.3C71.4,40.4,69.5,42.1,66.4,42.1z"/>
	<path d="M95.6,39.1L95,22.9c0-1.6,0.8-2.2,2.2-2.2v-0.8h-5.1L86,35.6l-6-15.7h-5.7v0.8c1.4,0.1,2,0.6,2.5,1.9l-0.7,16.8
		c0,2-1,2.9-2.9,2.9v0.9h7.4v-0.9c-1.9,0-2.5-0.9-2.5-2.9c0,0,0.3-10.3,0.3-13.6c1.2,3.2,4.7,12.9,4.7,12.9s0.9,2.2,1.2,3.4l1.3-0.1
		c0.4-1.7,0.9-3.3,1.6-4.9l4.1-11.3c0.1,2,0.4,13.4,0.4,13.4c0.1,2.5-0.7,3.1-2.3,3.1v0.9h8.5v-0.9C96.1,42.2,95.6,41.6,95.6,39.1z"
		/>
	<path d="M50.5,19.2c-0.4,0.7-0.9,0.7-2.9,0.7H36.9c-1.3,0-1.8,0-2-0.6l-0.6-0.1l-0.6,5h0.8c0.6-2.2,0.9-2.8,3-2.8h3.2v17.3
		c0,3-0.6,3.5-2.4,3.5v0.9h8.3v-0.9c-1.9,0-2.4-0.6-2.4-3.4V21.4h3.2c1.7,0,2.3,0.7,2.4,2.8h0.8l0,0l0.6-5H50.5z"/>
	<path d="M30.1,29.7c-0.7-0.4-1.3-0.9-2.2-1.4c-1.7-1.1-3.1-2.3-3.1-4.2c0-2.1,1.6-3.2,3.7-3.2c2.2,0,3.5,1,3.5,3.2l0.8,0.1l0.6-4.8
		l-0.6-0.1L32,20.2c-0.4-0.2-1.8-0.9-3.9-0.9c-3.7,0-6.4,2.2-6.4,5.5c0,2.9,1.6,4.7,4,6.2c0.7,0.6,1.4,1,2.3,1.6c2.7,2,3.4,3,3.4,5
		c0,2.4-1.8,4.7-4.4,4.7c-3.4,0-5.1-1.8-5.5-4.2l-0.8-0.1l-0.6,5.2l0.7,0.2c0,0,0.3-0.6,0.8-1c0.3,0.2,1,0.6,1.9,0.8
		c0.9,0.3,2.1,0.6,3.7,0.6v0c4.8,0,7.8-2.9,7.8-6.8C34.9,34.3,34,32.5,30.1,29.7z"/>
	<path d="M159.5,19.9v0.8c1,0,1.4,0.3,1.4,1c0,0.6-0.1,1.1-0.7,2.1l-3.4,7.4l-3.5-7.6c-0.2-0.7-0.4-1.2-0.4-1.8
		c0-0.8,0.7-1.1,1.4-1.1v-0.8h-12.4v0.8c1.9,0,2.4,0.6,2.4,3v12.1L135,19.9h-5.7v0.8c1.9,0,2,0.9,3,2.2v16c0,2.5-0.3,3-1.7,3.4
		c-0.9-0.4-1.4-1.4-2-3.4l-6-18.9h-5v0.8c0.8,0.1,1.2,0.3,1.6,1.1l-5.7,18.1c-0.8,2.3-1.7,2.4-2.8,2.4v0.9h6.1v-0.9
		c-0.7,0-1.7-0.2-1.7-1.1c0-1,1.3-4.7,1.4-5.1h7.3l1,3.2c0.2,0.8,0.3,1.6,0.3,2c0,0.7-0.9,1-1.9,1v0.9h13.1v-0.9
		c-1.8,0-2.4-0.6-2.4-3.4V25.5l10.9,18.2l1.4-0.1c-0.1-1.6-0.2-2.9-0.2-2.9V23.6c0-1.8,0.3-2.5,1.4-3c0.6,0.3,0.9,0.8,1.8,2.8
		l4.9,10.3v5.2c0,2.7-0.7,3.3-2.4,3.3v0.9h8.4v-0.9c-1.8,0-2.4-0.7-2.4-3.3v-6.1l4.5-9.3c0.7-1.6,1.6-2.9,3-2.9v-0.8H159.5z
		 M117.1,34.5l3.1-10.1l3.3,10.1H117.1z"/>
	<path d="M12.2,27.8h-0.8c-0.2,1.4-0.6,2.3-2.2,2.3H6v-8.8h5c1.8,0,2.7,0.8,2.7,2.8h0.9l0.6-5.1h-0.8c-0.3,0.7-0.8,0.8-2.8,0.8H0
		v0.8c1.8,0,2.4,0.7,2.4,2.2v16.3c0,2.5-0.3,3.1-2.4,3.1v0.9h8.4v-0.9c-1.8,0-2.4-0.3-2.4-3.1v-7.4h3.1c1.8,0,2.1,0.7,2.3,2.3h0.8
		V27.8z"/>
	<path d="M104.8,39.3v-4.8h1.7c4.2,0,8.6-2.3,8.6-7.6c0-5.1-3.7-7-9.9-7h-6.4v0.8c1.8,0,2.4,0.4,2.4,2.9v15.6c0,2.4-0.7,3.1-2.4,3.1
		v0.9h8.5v-0.9C105.5,42.2,104.8,41.7,104.8,39.3z M104.8,21.4h0.6c4.3,0,6,1.3,6,5.5c0,4.2-1.9,5.9-5.5,5.9h-1V21.4z"/>
	<path d="M60.7,31.4c0,4.3,2.9,7.3,7.1,7.3c3.9,0,7-3.2,7-7.3c0-4.2-3-7.3-7-7.3C63.7,24.1,60.7,27.3,60.7,31.4z M71.6,31.3
		c0,3.1-0.9,6.1-3.8,6.1c-3,0-3.9-3-3.9-6c0-3.2,1-6,3.9-6C70.5,25.4,71.6,28.3,71.6,31.3z"/>
	<path d="M19.1,36.6v0.8h5.9v-0.8c-0.9,0-1.4-0.6-2-2.4c-1.2-3.5-2.4-7.1-3.7-10.6h-3.5v0.8c0.7,0,1,0.3,1.1,0.8l-3.3,10
		c-0.4,1.2-0.9,1.6-2,1.6v0.8h4.3v-0.8c-0.7,0-1.1-0.3-1.1-0.8c0-0.4,0.1-0.8,0.2-1.1l0.4-1.4h4.3c0.2,0.7,0.4,1.6,0.4,1.6
		c0.1,0.3,0.2,0.7,0.2,1.1C20.4,36.3,20.2,36.6,19.1,36.6z M15.8,32l1.7-5.4l1.8,5.4H15.8z"/>
</g>
</svg>
