<?xml version="1.0" encoding="utf-8"?>
<!-- Generator: Adobe Illustrator 21.1.0, SVG Export Plug-In . SVG Version: 6.00 Build 0)  -->
<svg version="1.1" id="Layer_1" xmlns="http://www.w3.org/2000/svg" xmlns:xlink="http://www.w3.org/1999/xlink" x="0px" y="0px"
	 viewBox="0 0 52.9 43.3" style="enable-background:new 0 0 52.9 43.3;" xml:space="preserve">
<path d="M44.3,31.3l-7.8,0.3l3.1,4.4c-3.4,0.7-6.6-2.2-6.5-5.5c0.1-3.4,2.8-5.9,6-5.8c4.2,0,7.1,3.9,5.9,7.5L44.3,31.3L44.3,31.3z
	 M26,32c0.8,5.8,5.8,11.3,12.9,11.3c3.1,0,5.3-1.3,5.6-1.5l0.8,1.1l7.6-0.4l-3.2-4.5c0,0,2.4-3.1,2.4-7.1c0-7.9-5.5-13.1-13.3-13.1
	C32,17.7,26.6,23,26,29.2l-0.1-0.6h-12v6h3.3c0,0.1-1.7,1.8-4.2,1.8c-2.8,0-5.9-2.2-5.9-5.7c-0.1-3.6,3.1-6,6-5.9
	c2.3,0.1,3.2,0.8,4.5,2h7.8c-0.7-2.6-4.2-9-12.4-9C5.4,17.8,0,24,0,30.4c0,7.5,5.8,12.9,13.1,12.9C21.1,43.3,25.5,36.8,26,32z"/>
</svg>
