<?xml version="1.0" encoding="utf-8"?>
<!-- Generator: Adobe Illustrator 21.1.0, SVG Export Plug-In . SVG Version: 6.00 Build 0)  -->
<svg version="1.1" id="Layer_1" xmlns="http://www.w3.org/2000/svg" xmlns:xlink="http://www.w3.org/1999/xlink" x="0px" y="0px"
	 viewBox="0 0 125 43.3" style="enable-background:new 0 0 125 43.3;" xml:space="preserve">
<g id="g10" transform="matrix(1.3333333,0,0,-1.3333333,0,197.98667)">
	<g id="g12" transform="scale(0.1)">
		<path id="path14" d="M36,1162.9H0v228.7l36-2.3V1162.9"/>
		<path id="path16" d="M94.9,1162.9h-36V1326l36-2V1162.9z M76.9,1375.6c11.3,0,20.6-9.3,20.6-20.6c0-11.3-9.3-20.6-20.6-20.6
			c-11.3,0-20.6,9.3-20.6,20.6C56.3,1366.3,65.6,1375.6,76.9,1375.6"/>
		<path id="path18" d="M180.8,1293.2v-36h-27V1163h-36v178.9c0,27.3,22.6,51.9,49.3,51.9c9,0,16.3-2.6,18-3.8l-1.5-34.5h-16.5
			c-7.3,0-13.4-6.1-13.4-13.6v-48.8H180.8"/>
		<path id="path20" d="M231.4,1261.8h27v16.8c0,7.5-6.1,13.6-13.4,13.6c-7.5,0-13.6-6.1-13.6-13.6V1261.8z M195.4,1278.7
			c0,27.3,22.1,49.6,49.6,49.6c27.3,0,49.3-22.3,49.3-49.6v-34.8c0-10.2-8.1-18-18-18h-45v-15.7c0-7.5,6.1-13.6,13.6-13.6h34.5
			l1.2-30.5l-32.5-4.9c-31.3-5.2-52.8,21.8-52.8,49V1278.7"/>
		<path id="path22" d="M325.1,1162.9v227.2h23.2V1321c6.4,2,16.5,2.9,23.5,2.9c24.7,0,43.8-22.3,43.8-47.6v-113.5H393v113.5
			c0,12.5-10.2,22.3-22.6,22.3h-22.1v-135.8H325.1"/>
		<path id="path24" d="M500.6,1206.7v39.2h-22.3c-12.5,0-22.3-9.9-22.3-22.3v-16.8c0-12.5,9.9-22.6,22.3-22.6
			C490.7,1184.1,500.6,1194.2,500.6,1206.7z M500.6,1280.1c0,13.1-6.1,23.5-22.6,21.8h0.3c-9.3-0.3-21.2-1.5-31.1-2
			c-0.3,8.4-0.6,11.6-0.9,18c7.8,2.9,19.2,5.8,28.7,6.1c29,0.6,48.2-22.9,48.2-48.2v-69.1c0-25-20-45.6-45-45.6
			c-25,0-45.6,20.6-45.6,45.6v14.2c0,25,17.1,43.8,45.6,43.8c10.7,0,16.3-1.2,22.3-2.9V1280.1"/>
		<path id="path26" d="M588.3,1323.9c25,0,45.6-20.3,45.6-45.6v-2.9c-9-0.3-16.3-0.3-22.9-0.6v3.5c0,12.2-10.2,22.3-22.6,22.3
			c-12.2,0-22.1-10.2-22.1-22.3v-72.6c0-12.8,9.9-22.3,22.1-22.3c12.2,0,22.3,9.3,22.6,21.5c11.3-0.9,22.1-1.5,22.9-1.5
			c-1.2-24.1-21.5-43.2-45.6-43.2c-25,0-45.3,20.3-45.3,45.6v72.6C543,1303.6,563.3,1323.9,588.3,1323.9"/>
		<path id="path28" d="M725.3,1162.9l-44.1,76.9c-4.4,7.5-4.4,8.4,0.9,17.4l38.9,64.4h26.4l-43.8-74.3l47.3-84.5H725.3z
			 M675.4,1389.5v-226.7h-23.2v226.7H675.4"/>
		<path id="path30" d="M778.9,1253.7h44.7v24.4c0,12.5-10.2,22.6-22.3,22.6c-12.5,0-22.3-10.2-22.3-22.6V1253.7z M755.7,1278.1
			c0,25.2,20.3,45.9,45.6,45.9c25,0,45.3-20.6,45.3-45.9v-35.7c0-6.7-5.2-11.6-11.6-11.6h-56v-24.7c0-12.5,9.9-22.6,22.3-22.6h29.3
			c0.3-7.5,0.6-12.8,1.2-18l-27.9-4.4c-28.4-4.9-48.2,19.7-48.2,45L755.7,1278.1"/>
		<path id="path32" d="M890.1,1162.9h-23.2v113.2c0,25.2,19.7,48.8,48.8,48.2c9.9-0.3,16-2.6,22.6-5.8c-0.3-7-0.6-12.8-0.9-18
			l-25.3,0.6c-12.2,0-22.1-13.1-22.1-25V1162.9"/>
	</g>
</g>
</svg>
