<?xml version="1.0" encoding="utf-8"?>
<!-- Generator: Adobe Illustrator 21.1.0, SVG Export Plug-In . SVG Version: 6.00 Build 0)  -->
<svg version="1.1" id="Layer_1" xmlns="http://www.w3.org/2000/svg" xmlns:xlink="http://www.w3.org/1999/xlink" x="0px" y="0px"
	 viewBox="0 0 134.9 43.3" style="enable-background:new 0 0 134.9 43.3;" xml:space="preserve">
<g>
	<path d="M30.2,36.6h-7.5c-0.2,0-0.4-0.2-0.4-0.4v-3.8c0-0.2,0.2-0.4,0.4-0.4h6.6c0.2,0,0.4-0.2,0.4-0.4v-2.8c0-0.2-0.2-0.4-0.4-0.4
		h-6.6c-0.2,0-0.4-0.2-0.4-0.4v-3.1c0-0.2,0.2-0.4,0.4-0.4h7.3c0.2,0,0.4-0.2,0.4-0.4v-2.9c0-0.2-0.2-0.4-0.4-0.4H18.3
		c-0.2,0-0.4,0.2-0.4,0.4v18.7c0,0.2,0.2,0.4,0.4,0.4h11.8c0.2,0,0.4-0.2,0.4-0.4v-2.3V37C30.5,36.8,30.4,36.6,30.2,36.6z"/>
	<path d="M53,20.8h-3.3c-0.2,0-0.4,0.2-0.4,0.4v3.6c0,0.7,0,0.9,0,0.9c0,0.2-0.1,0.5-0.2,0.8l-0.9,3.9l-0.9,3.7c0,0.2-0.1,0.2-0.2,0
		l-0.7-3.2L45.2,26c0-0.3-0.1-0.7-0.1-0.7c0-0.2,0-0.5,0-0.8v-3.4c0-0.2-0.2-0.4-0.4-0.4h-3.1c-0.2,0-0.4,0.2-0.4,0.4v3.6
		c0,0.6,0,0.9,0,0.9c0,0.2-0.1,0.5-0.2,0.8l-1.6,6.8l-0.2,0.7c0,0.2-0.1,0.2-0.2,0L39,33.4L37.2,26c-0.1-0.4-0.1-0.8-0.1-0.8
		c0-0.2,0-0.5,0-0.8v-3.2c0-0.2-0.2-0.4-0.4-0.4h-3.3c-0.2,0-0.4,0.2-0.4,0.4v4.1c0,0.7,0.2,1.3,0.2,1.3c0,0.1,1.3,4.7,2.3,8.4
		l1.3,5c0,0.2,0.3,0.4,0.5,0.4h3.5c0.2,0,0.4-0.2,0.5-0.4l1.8-6.8c0-0.2,0.1-0.2,0.2,0l1.8,6.8c0,0.2,0.3,0.4,0.5,0.4h3.5
		c0.2,0,0.4-0.2,0.5-0.4l2.9-10.8l0.6-2.2c0-0.3,0.2-1.3,0.2-1.3c0-0.2,0-0.5,0-0.8v-3.7C53.4,21,53.2,20.8,53,20.8z"/>
	<path d="M14,20.8h-3.4c-0.2,0-0.4,0.2-0.4,0.4v7.4c0,0.2-0.1,0.2-0.2,0.1l-5.7-7.5c-0.1-0.2-0.4-0.3-0.6-0.3H0.4
		C0.2,20.8,0,21,0,21.2v18.7c0,0.2,0.2,0.4,0.4,0.4h3.4c0.2,0,0.4-0.2,0.4-0.4V28.6c0-0.2,0.1-0.2,0.2-0.1L10,36
		c0.1,0.2,0.2,0.5,0.2,0.7v3.2c0,0.2,0.2,0.4,0.4,0.4h3.4c0.2,0,0.3-0.2,0.3-0.4V21.2C14.4,21,14.2,20.8,14,20.8z"/>
	<path d="M70.3,21.2c-0.1-0.2-0.3-0.4-0.5-0.4H66c-0.2,0-0.5,0.2-0.5,0.4l-4.4,13c-0.3,0.8-0.3,1.2-0.3,1.8v3.9
		c0,0.2,0.2,0.4,0.4,0.4h3.4c0.2,0,0.4-0.2,0.4-0.4v-3.2c0-0.2,0.2-0.4,0.4-0.4h5.3c0.2,0,0.4,0.2,0.4,0.4v3.2
		c0,0.2,0.2,0.4,0.4,0.4h3.4c0.1,0,0.3-0.1,0.3-0.4V36c0-0.6,0-1-0.3-1.8L70.3,21.2z M69.8,32.8H66c-0.2,0-0.3-0.1-0.2-0.3l1.5-4.8
		l0.5-1.8c0-0.2,0.1-0.2,0.2,0l0.5,1.8l1.5,4.8C70.1,32.6,70,32.8,69.8,32.8z"/>
	<path d="M114.2,21.2c-0.1-0.2-0.3-0.4-0.5-0.4h-3.8c-0.2,0-0.5,0.2-0.5,0.4l-4.4,13c-0.3,0.8-0.3,1.2-0.3,1.8v1.6v2.3
		c0,0.2,0.2,0.4,0.4,0.4h3.4c0.1,0,0.2,0,0.3-0.1c0,0,0.1-0.1,0.1-0.2v-3.2c0-0.2,0.2-0.4,0.4-0.4h5.2c0.2,0,0.4,0.2,0.4,0.4v3.2
		c0,0.2,0.2,0.4,0.4,0.4h3.4c0.2,0,0.4-0.2,0.4-0.4V36c0-0.6,0-1-0.3-1.8L114.2,21.2z M113.7,32.8h-3.8c-0.2,0-0.3-0.1-0.2-0.3
		l2.1-6.6c0-0.2,0.1-0.2,0.2,0l2.1,6.6C114,32.6,113.9,32.8,113.7,32.8z"/>
	<path d="M88.1,20.8H75.4c-0.2,0-0.4,0.2-0.4,0.4v3c0,0.2,0.2,0.4,0.4,0.4h3.8c0.2,0,0.4,0.2,0.4,0.4v15.1h0c0,0.2,0.2,0.4,0.4,0.4
		h3.5c0.2,0,0.4-0.2,0.4-0.4v-15c0-0.2,0.2-0.4,0.4-0.4h3.8c0.2,0,0.4-0.2,0.4-0.4v-3C88.5,20.9,88.3,20.8,88.1,20.8z"/>
	<path d="M132.4,29.5l-6.2-1.6c-0.5-0.1-0.6-0.3-0.6-0.8v-2c0-0.5,0.2-0.7,0.7-0.7h3.7c0.5,0,0.7,0.2,0.7,0.7v1.4
		c0,0.2,0.2,0.4,0.4,0.4h3.4c0.2,0,0.4-0.2,0.4-0.4v-1.6c0-2.6-1.4-4.1-4-4.1h-5.4c-2.6,0-4.1,1.5-4.1,4.1v3c0,2.1,1.1,3.1,2.5,3.5
		l6.3,1.6c0.5,0.1,0.7,0.3,0.7,0.8v2.4c0,0.5-0.2,0.7-0.7,0.7h-4.1c-0.5,0-0.7-0.2-0.7-0.7v-1.2c0-0.2-0.2-0.4-0.4-0.4h-3.4
		c-0.2,0-0.4,0.2-0.4,0.4v1.4c0,2.6,1.4,4.1,4,4.1h5.8c2.6,0,4.1-1.5,4.1-4.1v-3.5C135.2,31.1,134.2,29.9,132.4,29.5z"/>
	<path d="M101.7,36.6h-5.9c-0.2,0-0.4-0.2-0.4-0.4l-0.1-15c0-0.2-0.2-0.4-0.4-0.4h-3.5c-0.2,0-0.4,0.1-0.4,0.4V40
		c0,0.2,0.2,0.4,0.4,0.4h10.2c0.2,0,0.4-0.1,0.4-0.4v-3C102,36.8,101.9,36.6,101.7,36.6z"/>
</g>
</svg>
