<?xml version="1.0" encoding="utf-8"?>
<!-- Generator: Adobe Illustrator 21.1.0, SVG Export Plug-In . SVG Version: 6.00 Build 0)  -->
<svg version="1.1" id="Layer_1" xmlns="http://www.w3.org/2000/svg" xmlns:xlink="http://www.w3.org/1999/xlink" x="0px" y="0px"
	 viewBox="0 0 170.2 43.3" style="enable-background:new 0 0 170.2 43.3;" xml:space="preserve">
<g>
	<polygon points="67.9,25.3 56.2,25.3 56.2,28.7 60.1,28.7 60.1,39.3 64,39.3 64,28.7 67.9,28.7 	"/>
	<path d="M72.3,28.6c-2.8,0-4.8,1.9-4.8,5.5c0,3.2,1.7,5.5,4.9,5.5c1.6,0,3-0.4,4.3-1.2l-1.4-2.3c-1,0.5-1.8,0.7-2.7,0.7
		c-1,0-1.7-0.5-1.8-1.7H77c0-0.2,0-0.4,0-0.7C77,30.5,75.2,28.6,72.3,28.6z M70.8,32.9c0.1-1,0.6-1.6,1.4-1.6c1.1,0,1.4,0.5,1.6,1.6
		H70.8z"/>
	<path d="M83.8,36.6c-1,0-1.5-0.9-1.5-2.5c0-1.7,0.5-2.6,1.4-2.6c0.8,0,1.1,0.4,1.6,1.4l2.5-1.9c-0.9-1.5-2.1-2.4-4-2.4
		c-3.4,0-5,2.2-5,5.4c0,3.5,1.8,5.5,4.9,5.5c1.9,0,3-0.7,4.2-2.5l-2.3-1.8C84.9,36.3,84.5,36.6,83.8,36.6z"/>
	<path d="M96.2,28.6c-1.2,0-2,0.4-2.6,0.9v-4.8l-3.6,1.4v13.1h3.6v-6c0-1.3,0.5-1.7,1.2-1.7c0.7,0,1.2,0.4,1.2,1.7v6h3.6v-6.4
		C99.6,30.2,98.5,28.6,96.2,28.6z"/>
	<path d="M108.2,36.2c-1.7,0-2.4-1.7-2.4-3.8c0-2.2,0.7-3.8,2.3-3.8c1.3,0,1.8,0.8,2.3,2.1l3.5-1.4c-1-2.6-2.3-4.1-5.8-4.1
		c-3.8,0-6.4,2.7-6.4,7.2c0,4.1,2.2,7.2,6.4,7.2c3.3,0,4.9-1.8,5.8-3.6l-3.3-1.7C110,35.5,109.4,36.2,108.2,36.2z"/>
	<path d="M119.8,29.6v-0.8h-3.6v10.5h3.6v-5.7c0-1.3,0.5-1.7,1.4-1.7c0.7,0,1.2,0.4,1.7,0.9l0.8-3.7c-0.4-0.3-0.9-0.4-1.7-0.4
		C121.1,28.6,120.4,29,119.8,29.6z"/>
	<path d="M131.4,34.8c0,1.3-0.5,1.7-1.2,1.7s-1.2-0.4-1.2-1.7v-6h-3.6v6.4c0,2.8,1.1,4.3,3.4,4.3c1.2,0,2-0.4,2.6-0.9v0.7h3.6V28.8
		h-3.6V34.8z"/>
	<path d="M143.9,28.6c-1.2,0-2,0.4-2.6,0.9v-0.7h-3.6v10.5h3.6v-6c0-1.3,0.5-1.7,1.2-1.7c0.7,0,1.2,0.4,1.2,1.7v6h3.6v-6.4
		C147.3,30.2,146.2,28.6,143.9,28.6z"/>
	<path d="M154.4,36.6c-1,0-1.5-0.9-1.5-2.5c0-1.7,0.5-2.6,1.4-2.6c0.8,0,1.1,0.4,1.6,1.4l2.5-1.9c-0.9-1.5-2.1-2.4-4-2.4
		c-3.4,0-5,2.2-5,5.4c0,3.5,1.8,5.5,4.9,5.5c1.9,0,3-0.7,4.2-2.5l-2.3-1.8C155.6,36.3,155.1,36.6,154.4,36.6z"/>
	<path d="M166.8,28.6c-1.2,0-2,0.4-2.6,0.9v-4.8l-3.6,1.4v13.1h3.6v-6c0-1.3,0.5-1.7,1.2-1.7c0.7,0,1.2,0.4,1.2,1.7v6h3.6v-6.4
		C170.2,30.2,169.1,28.6,166.8,28.6z"/>
	<polygon points="0,19.3 0,27.3 8,27.3 8,43.3 16,43.3 16,27.3 24,27.3 24,19.3 	"/>
	<polygon points="24,43.3 48,43.3 48,35.3 32,35.3 32,27.3 24,27.3 	"/>
	<rect x="32" y="19.3" width="16" height="8"/>
</g>
</svg>
