<?xml version="1.0" encoding="utf-8"?>
<!-- Generator: Adobe Illustrator 21.1.0, SVG Export Plug-In . SVG Version: 6.00 Build 0)  -->
<svg version="1.1" id="Layer_1" xmlns="http://www.w3.org/2000/svg" xmlns:xlink="http://www.w3.org/1999/xlink" x="0px" y="0px"
	 viewBox="0 0 150.3 43.3" style="enable-background:new 0 0 150.3 43.3;" xml:space="preserve">
<g>
	<path d="M109.4,30.4c0.4-0.3,0.8-0.4,1.1-0.6c0.9-0.6,1.5-1.4,1.8-2.4c0.7-3.1-1.2-5.7-4.5-5.9c-3.4-0.2-6.8-0.1-10.2-0.2
		c0,0-0.1,0-0.2,0.1c0,1.2,0,2.4,0,3.6c0.3,0,0.5,0,0.7,0c1.1-0.1,1-0.1,1,1c0,3.1,0,6.2,0,9.2c0,0.7-0.1,1.1-0.9,0.9
		c-0.2,0-0.5,0-0.7,0c0,1.3,0,2.5,0,3.6c3.8,0,7.5,0.1,11.1,0c2-0.1,3.6-1.2,4.2-3.3C113.5,33.8,112.3,31.6,109.4,30.4z M104.4,24.9
		c2-0.2,2.9,0.4,3,1.7c0.1,1.2-0.5,2-1.8,2.2c-1.8,0.3-1.8,0.2-1.8-2c0-0.1,0-0.1,0-0.2C104.2,26.1,103.3,25,104.4,24.9z
		 M106.2,36.1c-0.7,0-1.4,0-2.3,0c0-1.2,0-2.3,0-3.3c0-0.2,0.3-0.4,0.5-0.5c0.6,0,1.2,0,1.8,0c1.1,0.1,1.7,0.9,1.7,2
		C107.9,35.4,107.3,36,106.2,36.1z"/>
	<path d="M17.7,25c0,0,0.1-0.1,0.1-0.1c0-1.2,0-2.4,0-3.6c-2.5,0-4.9,0-7.3,0c0,1.3,0,2.5,0,3.8c0.5,0,1,0,1.6,0
		c-1,3.5-1.9,6.9-2.9,10.4c-0.1,0-0.1,0-0.2,0C8.2,31.9,7.3,28.5,6.4,25C7,25,7.5,25,8,25c0-1.3,0-2.5,0-3.7c-2.7,0-5.4,0-8,0
		c0,1.3,0,2.5,0,3.8c1.2-0.4,1.3,0.4,1.5,1.2c1.4,4.3,2.7,8.6,4.1,12.9C5.8,39.8,6,40,6.7,40c1.5-0.1,3-0.1,4.5,0
		c0.6,0,0.9-0.2,1.1-0.8c1.3-4.3,2.7-8.6,4-13C16.5,25.5,16.7,24.8,17.7,25z"/>
	<path d="M44.5,35.2c0-1.9,0-3.8,0-5.7c0-1.9-1-3.1-2.7-3.5c-2-0.4-3.8,0.1-5.1,1.7c-0.1,0.1-0.1,0.3-0.2,0.4
		c-0.1-0.1-0.1-0.1-0.2-0.2c-0.1-0.6-0.1-1.1-0.2-1.7c-1.8,0-3.6,0-5.4,0c0,1.3,0,2.5,0,3.8c0.4,0,0.7,0.1,1,0.1c0,2,0,4,0,6
		c-0.4,0-0.7,0.1-1,0.1c0,1.3,0,2.5,0,3.7c2.3,0,4.6,0,6.9,0c0-1.3,0-2.5,0-3.7c-0.3,0-0.6-0.1-0.9-0.1c0-1.4,0-2.8,0-4.2
		c0-1.1,0.7-1.7,1.5-1.7c0.8,0,1.2,0.5,1.2,1.7c0,2.4,0,4.8,0,7.2c0,0.3,0,0.5,0,0.8c2.1,0,4,0,6,0c0-1.3,0-2.5,0-3.8
		c-0.4,0-0.7,0-1.1-0.1C44.5,35.7,44.5,35.5,44.5,35.2z"/>
	<path d="M69,26.2c-2,0-4,0-6,0c0,1.3,0,2.5,0,3.7c0.3,0,0.6,0.1,1,0.1c0,0.8,0,1.5,0,2.2c0,0.9,0,1.8-0.1,2.6
		c-0.1,0.7-0.5,1.2-1.2,1.2c-0.7,0-1.2-0.4-1.3-1.2c0-0.3,0-0.5,0-0.8c0-2.4,0-4.7,0-7.1c0-0.3,0-0.5,0-0.8c-2.1,0-4.1,0-6,0
		c0,1.3,0,2.5,0,3.7c0.4,0,0.7,0,1.1,0.1c0,0.3,0,0.6,0,0.9c0,1.9,0,3.9,0.1,5.8c0.1,2.2,1.6,3.5,3.7,3.6c1.6,0,3-0.4,4.2-1.7
		c0,0.5,0.1,0.9,0.1,1.3c1.9,0,3.7,0,5.6,0c0-1.3,0-2.5,0-3.8c-0.4,0-0.7,0-1.1-0.1C69,32.8,69,29.5,69,26.2z"/>
	<path d="M140.2,35.1c0-1.7,0-3.4,0-5c0-1.2-0.6-2.1-1.5-2.9c-2.2-1.7-6.6-1.8-8.8-0.2c-1.2,0.9-1.7,2.1-1.6,3.6c0.8,0,1.5,0,2.2,0
		c0.7,0,1.5,0,2.2,0c0.5-1.4,1-1.9,1.8-1.7c0.8,0.2,1.2,1.1,0.8,2.5c-0.6,0-1.3,0-2,0c-1.3,0.1-2.6,0.3-3.8,1
		c-1.7,1.1-2.3,3.4-1.5,5.5c0.6,1.7,2.4,2.5,4.5,2.2c1.2-0.2,2.2-0.8,3-1.8c0.1,0.6,0.1,1,0.2,1.5c1,0,1.9,0,2.9,0
		c0.9,0,1.8,0,2.8,0c0-1.3,0-2.5,0-3.7c-0.4,0-0.7-0.1-1.1-0.1C140.2,35.7,140.2,35.4,140.2,35.1z M135.4,34.9c0,0.3,0,0.5,0,0.8
		c-0.1,0.7-0.4,1.3-1.2,1.4c-0.4,0-1-0.2-1.3-0.5c-0.5-0.6-0.4-1.3,0-2c0.4-0.6,1.5-1.1,2.1-0.8c0.3,0.1,0.3,0.6,0.5,1
		C135.5,34.8,135.5,34.8,135.4,34.9z"/>
	<path d="M23.9,25.9c-3.8-0.5-6.7,1.5-7.5,5c-0.3,1.6-0.3,3.1,0,4.7c0.4,1.6,1.2,3,2.7,3.7c2.5,1.3,5.1,1.4,7.6,0.1
		c1.7-0.8,2.5-2.3,2.7-4.2c-1.4,0-2.7,0-4.1,0c-0.5,0-0.7,0.1-0.8,0.6c-0.2,0.8-0.8,1.2-1.6,1.1c-0.8,0-1.3-0.5-1.5-1.2
		c-0.1-0.5-0.2-1-0.3-1.7c0.4,0,0.7,0,1,0c1.8,0,3.6,0,5.4,0c2.2,0,2.2,0,2-2.2C29.3,28.3,27.3,26.3,23.9,25.9z M21.5,31.4
		c0-0.7,0.1-1.4,0.7-1.8c0.6-0.4,1.2-0.4,1.8-0.1c0.7,0.4,0.9,1,0.8,1.9C23.6,31.4,22.6,31.4,21.5,31.4z"/>
	<path d="M95.9,31.8c-0.3-3.4-2.3-5.5-5.7-5.9c-3.9-0.5-6.9,1.6-7.5,5.4c-0.2,1.3-0.1,2.7,0.1,4c0.4,2.6,2,4.2,4.6,4.8
		c1.6,0.4,3.3,0.3,4.9-0.3c2-0.7,3.4-2.5,3.4-4.6c-1.3,0-2.7,0-4,0c-0.5,0-0.7,0.1-0.8,0.6c-0.2,0.8-0.8,1.1-1.6,1.1
		c-0.8,0-1.3-0.4-1.5-1.2c-0.1-0.5-0.2-1.1-0.3-1.8c2.9,0,5.6,0,8.5,0C96,33.2,96,32.5,95.9,31.8z M87.8,31.4
		c-0.1-0.7,0.1-1.3,0.6-1.7c0.6-0.4,1.2-0.4,1.8-0.1c0.7,0.4,0.8,1,0.9,1.9C89.9,31.4,88.9,31.4,87.8,31.4z"/>
	<path d="M121.4,25.9c-3.8-0.5-6.8,1.6-7.5,5.4c-0.3,1.6-0.2,3.1,0.3,4.7c0.6,1.9,1.9,3.2,3.8,3.8c1.7,0.5,3.4,0.5,5.1,0.1
		c2.3-0.6,3.8-2.4,3.9-4.7c-1.3,0-2.6,0-3.8,0c-0.5,0-0.8,0.1-0.9,0.6c-0.2,0.8-0.8,1.1-1.6,1.1c-0.8,0-1.3-0.4-1.5-1.1
		c-0.2-0.6-0.2-1.1-0.4-1.9c0.5,0,0.8,0,1.1,0c2.2,0,4.4,0,6.7,0c0.4,0,0.7,0.1,0.8-0.5C127.3,30,126.2,26.5,121.4,25.9z
		 M118.9,31.4c0-0.8,0.1-1.4,0.8-1.9c0.6-0.4,1.2-0.3,1.8,0c0.7,0.4,0.8,1.1,0.8,1.9C121.2,31.4,120.1,31.4,118.9,31.4z"/>
	<path d="M52.3,21.9c-1.4,0.3-2.6,0.6-3.9,0.9c-0.5,0.1-0.7,0.3-0.6,0.8c0,0.8,0,1.7,0,2.6c-0.6,0-1,0-1.5,0c0,1.3,0,2.6,0,3.8
		c0.4,0,0.8,0.1,1.1,0.1c0,0.3,0,0.6,0,0.9c0,2,0,3.9,0,5.9c0,1.9,0.7,2.9,2.5,3.1c1.3,0.2,2.7,0,4.1-0.1c0.1,0,0.4-0.2,0.4-0.4
		c0-1,0-2.1,0-3.1c-1.4,0.1-2-0.2-2-1.1c-0.1-1.7,0-3.5,0-5.3c0.7,0,1.4,0,2.1,0c0-1.3,0-2.5,0-3.9c-0.7,0-1.4,0-2.2,0
		C52.3,24.7,52.3,23.4,52.3,21.9z"/>
	<path d="M150.3,30c0-1.3,0-2.5,0-3.8c-0.7,0-1.4,0-2.1,0c0-1.4,0-2.8,0-4.2c-1.4,0.3-2.6,0.6-3.9,0.9c-0.5,0.1-0.6,0.3-0.6,0.8
		c0,0.9,0,1.7,0,2.6c-0.6,0-1,0.1-1.5,0.1c0,1.3,0,2.5,0,3.7c0.4,0,0.7,0.1,1.1,0.1c0,0.4,0,0.7,0,1.1c0,2,0,4.1,0.1,6.1
		c0.1,1.6,0.7,2.5,2.3,2.7c1.4,0.2,2.8,0,4.2,0c0.1,0,0.4-0.2,0.4-0.4c0-1,0-2,0-3.1c-1.4,0.1-2-0.2-2-1.2c-0.1-1.7,0-3.4,0-5.2
		C148.9,30,149.6,30,150.3,30z"/>
	<path d="M80.6,26c-1.7-0.1-3,0.4-3.8,2c0-0.6-0.1-1.2-0.1-1.8c-1.8,0-3.6,0-5.3,0c0,1.3,0,2.5,0,3.8c0.4,0,0.7,0.1,1,0.1
		c0,2,0,4,0,6c-0.4,0-0.7,0.1-1,0.1c0,1.3,0,2.5,0,3.7c2.5,0,5,0,7.5,0c0-1.3,0-2.5,0-3.8c-0.5,0-1,0-1.6-0.1c0-0.2,0-0.4,0-0.5
		c0-0.9,0-1.7,0.1-2.6c0.1-1.3,0.6-2.1,1.9-2.4c0.7-0.2,1.4-0.1,2.2-0.2c0-1.1,0-2.3,0-3.5C81.5,26.2,81.2,26.1,80.6,26z"/>
</g>
</svg>
