<svg xmlns="http://www.w3.org/2000/svg" viewBox="0 0 98.7 43.3"><path d="M88.9 43.2h-6.2v-27h6.2v9.3l3.1-9.3h6L94.4 27l4.3 16.1h-6.3l-3.5-12.8v12.9zm-7.5-6h-6.5v-5.8h6.5v-5.2h-6.5v-4.8h6.5v-5.2H68.8v27h12.5v-6zM67.5 21.4v-5.2H50.1l-2.2 12.7-1.8-12.7h-5.6l-1.7 12.7-2.2-12.7h-6.1l.4 2.4c-.9-1.5-2.5-2.3-4.2-2.4H15.6v17l-2.5-17H3.9L0 43.2h5.9l.6-4.1h3.9l.6 4.1h15.6a5 5 0 0 0 5-5.2V23.8l3 19.4h6.5l2.2-15.4 2.2 15.4H52l2.8-18.6v18.6h12.7v-6.1H61v-5.8h6.5v-5.2H61v-4.8h6.5v.1zM7.4 33.3l1.2-7.7 1.1 7.7H7.4zm18.3 1.9c0 1.1-.9 1.9-1.9 1.9h-1.9V21.4h1.9c1.1 0 1.9.9 1.9 1.9v11.9z"/></svg>