<svg xmlns="http://www.w3.org/2000/svg" width="80" height="66"><path fill-rule="evenodd" d="M77.288 58.155c-.656 0-1.181.4-1.181.889s.507.863 1.181.978c.77.133 1.129.214 1.496.373.595.249 1.216.809 1.216 2.16C80 63.907 78.618 65 77.288 65c-1.33 0-2.712-.96-2.712-2l1.312-.445c0 .614.814 1.112 1.4 1.112.639 0 1.4-.498 1.4-1.112 0-.791-.779-1.03-1.4-1.199-.84-.223-1.496-.285-1.908-.712-.516-.533-.586-1.013-.586-1.6 0-1.226 1.286-2.222 2.494-2.222 1.207 0 2.494.925 2.494 1.778l-1.313.444c0-.489-.525-.889-1.181-.889zm-6.529 2.311l-2.844 2.889-2.843-2.889v4.445H63.76v-8l4.155 4.222 4.157-4.222v8h-1.313v-4.445zM67.785 15.16l-2.816 3.677h-2.414l-.743 12.075-4.855 4.773-2.665 8.285-.592-.015a34.133 34.133 0 0 0-1.431 0c-.48.007-.978.013-1.496 0l-.452-.012-3.176-5.745-16.896-1.656-4.688 2.711-4.477 4.711-.349-.009c-.485-.013-.966-.006-1.431 0-.482.007-.98.013-1.497 0l-.657-.018-1.416-8.718-1.133-7.235 4.565-6.012 27.195-4.058 5.903-10.795.789-4.97L55.168 0l3.533 5.64h.535L63.053.076l2.37 2.14-.817 6.475v3.069l3.179 3.4zM53.861 40.109l1.706-5.306 4.696-4.617.676-10.986a2152.375 2152.375 0 0 0-7.787 4.983c-2.629 1.687-5.339 3.426-8.045 5.145l5.795 4.09 2.959 6.691zM29.9 34.884l18.226 1.787 3.137 5.675c.326.001.65-.003.985-.007.278-.004.557-.006.852-.007l-3.468-7.843-6.189-4.368-11.961-.529-4.102 6.75 2.52-1.458zm-12.596.076l1.2 7.387c.257-.001.514-.004.778-.008a47.6 47.6 0 0 1 1.141-.006l4.013-4.222 5.215-8.583-13.263-.417.916 5.849zM63.022 8.536l.716-5.68-.403-.364-3.269 4.764h-2.238l-2.937-4.689-.35.355-.751 4.734-6.42 11.74-27.338 4.08-3.064 4.036 13.647.43.004-.006.494.022 12.532.394c2.907-1.844 5.829-3.72 8.657-5.536 2.859-1.834 5.814-3.731 8.753-5.596l3.136.001 1.498-1.956-2.674-2.86.007-3.869zM13.716 62.573l1.373 2.338h-1.75l-1.172-2h-1.234v2H9.621v-8h2.73c1.636 0 2.957 1.342 2.957 2.996a3.002 3.002 0 0 1-1.592 2.666zm-1.365-4.328h-1.418v3.333h1.418c.91 0 1.645-.747 1.645-1.671 0-.916-.735-1.662-1.645-1.662zm-8.414 5.333c.726 0 1.382-.303 1.855-.782l.927.942a3.872 3.872 0 0 1-2.782 1.173c-2.17 0-3.938-1.795-3.938-4 0-2.204 1.768-4 3.938-4 1.085 0 2.073.444 2.782 1.173l-.927.942a2.603 2.603 0 0 0-1.855-.781c-1.453 0-2.625 1.191-2.625 2.666 0 1.476 1.172 2.667 2.625 2.667zm17.594-6.667a3.87 3.87 0 0 1 2.783 1.173l-.928.942a2.6 2.6 0 0 0-1.855-.781c-1.452 0-2.625 1.191-2.625 2.666 0 1.476 1.173 2.667 2.625 2.667 1.225 0 2.249-.854 2.546-2H21.75l-.219-1.334h3.938v.667c0 2.205-1.768 4-3.938 4s-3.937-1.795-3.937-4c0-2.204 1.767-4 3.937-4zm14.773 0c1.085 0 2.074.444 2.782 1.173l-.927.942a2.603 2.603 0 0 0-1.855-.781c-1.453 0-2.625 1.191-2.625 2.666 0 1.476 1.172 2.667 2.625 2.667.726 0 1.382-.303 1.855-.782l.927.942a3.87 3.87 0 0 1-2.782 1.173c-2.17 0-3.937-1.795-3.937-4 0-2.204 1.767-4 3.937-4zm9.403 0c2.169 0 3.937 1.796 3.937 4 0 2.205-1.768 4-3.937 4-2.179 0-3.938-1.795-3.938-4 0-2.204 1.759-4 3.938-4zm0 6.667c1.443 0 2.625-1.191 2.625-2.667 0-1.475-1.182-2.666-2.625-2.666-1.453 0-2.625 1.191-2.625 2.666 0 1.476 1.172 2.667 2.625 2.667zm15.151-6.667v8h-1.313v-4.445l-2.843 2.889-2.844-2.889v4.445h-1.312v-8l4.156 4.222 4.156-4.222z"/></svg>