<svg xmlns="http://www.w3.org/2000/svg" viewBox="0 0 134.9 43.3"><path d="M30.2 36.6h-7.5c-.2 0-.4-.2-.4-.4v-3.8c0-.2.2-.4.4-.4h6.6c.2 0 .4-.2.4-.4v-2.8c0-.2-.2-.4-.4-.4h-6.6c-.2 0-.4-.2-.4-.4v-3.1c0-.2.2-.4.4-.4H30c.2 0 .4-.2.4-.4v-2.9c0-.2-.2-.4-.4-.4H18.3c-.2 0-.4.2-.4.4v18.7c0 .2.2.4.4.4h11.8c.2 0 .4-.2.4-.4V37c0-.2-.1-.4-.3-.4zM53 20.8h-3.3c-.2 0-.4.2-.4.4v4.5c0 .2-.1.5-.2.8l-.9 3.9-.9 3.7c0 .2-.1.2-.2 0l-.7-3.2-1.2-4.9c0-.3-.1-.7-.1-.7v-4.2c0-.2-.2-.4-.4-.4h-3.1c-.2 0-.4.2-.4.4v4.5c0 .2-.1.5-.2.8l-1.6 6.8-.2.7c0 .2-.1.2-.2 0v-.5L37.2 26c-.1-.4-.1-.8-.1-.8v-4c0-.2-.2-.4-.4-.4h-3.3c-.2 0-.4.2-.4.4v4.1c0 .7.2 1.3.2 1.3 0 .1 1.3 4.7 2.3 8.4l1.3 5c0 .2.3.4.5.4h3.5c.2 0 .4-.2.5-.4l1.8-6.8c0-.2.1-.2.2 0l1.8 6.8c0 .2.3.4.5.4h3.5c.2 0 .4-.2.5-.4l2.9-10.8.6-2.2c0-.3.2-1.3.2-1.3v-4.5c.1-.2-.1-.4-.3-.4zm-39 0h-3.4c-.2 0-.4.2-.4.4v7.4c0 .2-.1.2-.2.1l-5.7-7.5c-.1-.2-.4-.3-.6-.3H.4c-.2-.1-.4.1-.4.3v18.7c0 .2.2.4.4.4h3.4c.2 0 .4-.2.4-.4V28.6c0-.2.1-.2.2-.1L10 36c.1.2.2.5.2.7v3.2c0 .2.2.4.4.4H14c.2 0 .3-.2.3-.4V21.2c.1-.2-.1-.4-.3-.4zm56.3.4c-.1-.2-.3-.4-.5-.4H66c-.2 0-.5.2-.5.4l-4.4 13c-.3.8-.3 1.2-.3 1.8v3.9c0 .2.2.4.4.4h3.4c.2 0 .4-.2.4-.4v-3.2c0-.2.2-.4.4-.4h5.3c.2 0 .4.2.4.4v3.2c0 .2.2.4.4.4h3.4c.1 0 .3-.1.3-.4V36c0-.6 0-1-.3-1.8l-4.6-13zm-.5 11.6H66c-.2 0-.3-.1-.2-.3l1.5-4.8.5-1.8c0-.2.1-.2.2 0l.5 1.8 1.5 4.8c.1.1 0 .3-.2.3zm44.4-11.6c-.1-.2-.3-.4-.5-.4h-3.8c-.2 0-.5.2-.5.4l-4.4 13c-.3.8-.3 1.2-.3 1.8v3.9c0 .2.2.4.4.4h3.4c.1 0 .2 0 .3-.1 0 0 .1-.1.1-.2v-3.2c0-.2.2-.4.4-.4h5.2c.2 0 .4.2.4.4V40c0 .2.2.4.4.4h3.4c.2 0 .4-.2.4-.4v-4c0-.6 0-1-.3-1.8l-4.6-13zm-.5 11.6h-3.8c-.2 0-.3-.1-.2-.3l2.1-6.6c0-.2.1-.2.2 0l2.1 6.6c-.1.1-.2.3-.4.3zm-25.6-12H75.4c-.2 0-.4.2-.4.4v3c0 .2.2.4.4.4h3.8c.2 0 .4.2.4.4v15.1c0 .2.2.4.4.4h3.5c.2 0 .4-.2.4-.4v-15c0-.2.2-.4.4-.4h3.8c.2 0 .4-.2.4-.4v-3c0-.4-.2-.5-.4-.5zm44.3 8.7l-6.2-1.6c-.5-.1-.6-.3-.6-.8v-2c0-.5.2-.7.7-.7h3.7c.5 0 .7.2.7.7v1.4c0 .2.2.4.4.4h3.4c.2 0 .4-.2.4-.4v-1.6c0-2.6-1.4-4.1-4-4.1h-5.4c-2.6 0-4.1 1.5-4.1 4.1v3c0 2.1 1.1 3.1 2.5 3.5l6.3 1.6c.5.1.7.3.7.8v2.4c0 .5-.2.7-.7.7h-4.1c-.5 0-.7-.2-.7-.7V35c0-.2-.2-.4-.4-.4h-3.4c-.2 0-.4.2-.4.4v1.4c0 2.6 1.4 4.1 4 4.1h5.8c2.6 0 4.1-1.5 4.1-4.1v-3.5c.1-1.8-.9-3-2.7-3.4zm-30.7 7.1h-5.9c-.2 0-.4-.2-.4-.4l-.1-15c0-.2-.2-.4-.4-.4h-3.5c-.2 0-.4.1-.4.4V40c0 .2.2.4.4.4h10.2c.2 0 .4-.1.4-.4v-3c0-.2-.1-.4-.3-.4z"/></svg>