<svg xmlns="http://www.w3.org/2000/svg" viewBox="0 0 170.2 43.3"><path d="M67.9 25.3H56.2v3.4h3.9v10.6H64V28.7h3.9zm4.4 3.3c-2.8 0-4.8 1.9-4.8 5.5 0 3.2 1.7 5.5 4.9 5.5 1.6 0 3-.4 4.3-1.2l-1.4-2.3c-1 .5-1.8.7-2.7.7-1 0-1.7-.5-1.8-1.7H77v-.7c0-3.9-1.8-5.8-4.7-5.8zm-1.5 4.3c.1-1 .6-1.6 1.4-1.6 1.1 0 1.4.5 1.6 1.6h-3zm13 3.7c-1 0-1.5-.9-1.5-2.5 0-1.7.5-2.6 1.4-2.6.8 0 1.1.4 1.6 1.4l2.5-1.9c-.9-1.5-2.1-2.4-4-2.4-3.4 0-5 2.2-5 5.4 0 3.5 1.8 5.5 4.9 5.5 1.9 0 3-.7 4.2-2.5l-2.3-1.8c-.7 1.1-1.1 1.4-1.8 1.4zm12.4-8c-1.2 0-2 .4-2.6.9v-4.8L90 26.1v13.1h3.6v-6c0-1.3.5-1.7 1.2-1.7s1.2.4 1.2 1.7v6h3.6v-6.4c0-2.6-1.1-4.2-3.4-4.2zm12 7.6c-1.7 0-2.4-1.7-2.4-3.8 0-2.2.7-3.8 2.3-3.8 1.3 0 1.8.8 2.3 2.1l3.5-1.4c-1-2.6-2.3-4.1-5.8-4.1-3.8 0-6.4 2.7-6.4 7.2 0 4.1 2.2 7.2 6.4 7.2 3.3 0 4.9-1.8 5.8-3.6l-3.3-1.7c-.6 1.2-1.2 1.9-2.4 1.9zm11.6-6.6v-.8h-3.6v10.5h3.6v-5.7c0-1.3.5-1.7 1.4-1.7.7 0 1.2.4 1.7.9l.8-3.7c-.4-.3-.9-.4-1.7-.4-.9-.1-1.6.3-2.2.9zm11.6 5.2c0 1.3-.5 1.7-1.2 1.7s-1.2-.4-1.2-1.7v-6h-3.6v6.4c0 2.8 1.1 4.3 3.4 4.3 1.2 0 2-.4 2.6-.9v.7h3.6V28.8h-3.6v6zm12.5-6.2c-1.2 0-2 .4-2.6.9v-.7h-3.6v10.5h3.6v-6c0-1.3.5-1.7 1.2-1.7s1.2.4 1.2 1.7v6h3.6v-6.4c0-2.7-1.1-4.3-3.4-4.3zm10.5 8c-1 0-1.5-.9-1.5-2.5 0-1.7.5-2.6 1.4-2.6.8 0 1.1.4 1.6 1.4l2.5-1.9c-.9-1.5-2.1-2.4-4-2.4-3.4 0-5 2.2-5 5.4 0 3.5 1.8 5.5 4.9 5.5 1.9 0 3-.7 4.2-2.5l-2.3-1.8c-.6 1.1-1.1 1.4-1.8 1.4zm12.4-8c-1.2 0-2 .4-2.6.9v-4.8l-3.6 1.4v13.1h3.6v-6c0-1.3.5-1.7 1.2-1.7s1.2.4 1.2 1.7v6h3.6v-6.4c0-2.6-1.1-4.2-3.4-4.2zM0 19.3v8h8v16h8v-16h8v-8zm24 24h24v-8H32v-8h-8z"/><path d="M32 19.3h16v8H32z"/></svg>