<svg xmlns="http://www.w3.org/2000/svg" viewBox="0 0 165.3 43.3"><path d="M66.4 42.1c-4.8 0-9.1-3.3-9.1-11 0-6.8 4.2-10.4 8.9-10.4 3.9 0 5.1 1.6 5.5 3.9h.7s.4-4 .6-5.2h-.7c-.3.3-.4.6-.8.9-1.7-.7-3.7-1-5.4-1-7.6 0-12.6 5.2-12.6 12 0 8 5.3 12.3 12.5 12.3 1.9 0 3.4-.4 4.3-.4.4 0 .9 0 1.3.1l1.8-4.8-.8-.3c-1.2 2.2-3.1 3.9-6.2 3.9z"/><path d="M95.6 39.1L95 22.9c0-1.6.8-2.2 2.2-2.2v-.8h-5.1L86 35.6l-6-15.7h-5.7v.8c1.4.1 2 .6 2.5 1.9l-.7 16.8c0 2-1 2.9-2.9 2.9v.9h7.4v-.9c-1.9 0-2.5-.9-2.5-2.9 0 0 .3-10.3.3-13.6 1.2 3.2 4.7 12.9 4.7 12.9s.9 2.2 1.2 3.4l1.3-.1c.4-1.7.9-3.3 1.6-4.9l4.1-11.3c.1 2 .4 13.4.4 13.4.1 2.5-.7 3.1-2.3 3.1v.9h8.5v-.9c-1.8-.1-2.3-.7-2.3-3.2zM50.5 19.2c-.4.7-.9.7-2.9.7H36.9c-1.3 0-1.8 0-2-.6l-.6-.1-.6 5h.8c.6-2.2.9-2.8 3-2.8h3.2v17.3c0 3-.6 3.5-2.4 3.5v.9h8.3v-.9c-1.9 0-2.4-.6-2.4-3.4V21.4h3.2c1.7 0 2.3.7 2.4 2.8h.8l.6-5h-.7z"/><path d="M30.1 29.7c-.7-.4-1.3-.9-2.2-1.4-1.7-1.1-3.1-2.3-3.1-4.2 0-2.1 1.6-3.2 3.7-3.2 2.2 0 3.5 1 3.5 3.2l.8.1.6-4.8-.6-.1-.8.9c-.4-.2-1.8-.9-3.9-.9-3.7 0-6.4 2.2-6.4 5.5 0 2.9 1.6 4.7 4 6.2.7.6 1.4 1 2.3 1.6 2.7 2 3.4 3 3.4 5 0 2.4-1.8 4.7-4.4 4.7-3.4 0-5.1-1.8-5.5-4.2l-.8-.1-.6 5.2.7.2s.3-.6.8-1c.3.2 1 .6 1.9.8.9.3 2.1.6 3.7.6 4.8 0 7.8-2.9 7.8-6.8-.1-2.7-1-4.5-4.9-7.3zm129.4-9.8v.8c1 0 1.4.3 1.4 1 0 .6-.1 1.1-.7 2.1l-3.4 7.4-3.5-7.6c-.2-.7-.4-1.2-.4-1.8 0-.8.7-1.1 1.4-1.1v-.8h-12.4v.8c1.9 0 2.4.6 2.4 3v12.1L135 19.9h-5.7v.8c1.9 0 2 .9 3 2.2v16c0 2.5-.3 3-1.7 3.4-.9-.4-1.4-1.4-2-3.4l-6-18.9h-5v.8c.8.1 1.2.3 1.6 1.1L113.5 40c-.8 2.3-1.7 2.4-2.8 2.4v.9h6.1v-.9c-.7 0-1.7-.2-1.7-1.1 0-1 1.3-4.7 1.4-5.1h7.3l1 3.2c.2.8.3 1.6.3 2 0 .7-.9 1-1.9 1v.9h13.1v-.9c-1.8 0-2.4-.6-2.4-3.4V25.5l10.9 18.2 1.4-.1c-.1-1.6-.2-2.9-.2-2.9V23.6c0-1.8.3-2.5 1.4-3 .6.3.9.8 1.8 2.8l4.9 10.3v5.2c0 2.7-.7 3.3-2.4 3.3v.9h8.4v-.9c-1.8 0-2.4-.7-2.4-3.3v-6.1l4.5-9.3c.7-1.6 1.6-2.9 3-2.9v-.8h-5.7zm-42.4 14.6l3.1-10.1 3.3 10.1h-6.4zM12.2 27.8h-.8c-.2 1.4-.6 2.3-2.2 2.3H6v-8.8h5c1.8 0 2.7.8 2.7 2.8h.9l.6-5.1h-.8c-.3.7-.8.8-2.8.8H0v.8c1.8 0 2.4.7 2.4 2.2v16.3c0 2.5-.3 3.1-2.4 3.1v.9h8.4v-.9c-1.8 0-2.4-.3-2.4-3.1v-7.4h3.1c1.8 0 2.1.7 2.3 2.3h.8v-6.2z"/><path d="M104.8 39.3v-4.8h1.7c4.2 0 8.6-2.3 8.6-7.6 0-5.1-3.7-7-9.9-7h-6.4v.8c1.8 0 2.4.4 2.4 2.9v15.6c0 2.4-.7 3.1-2.4 3.1v.9h8.5v-.9c-1.8-.1-2.5-.6-2.5-3zm0-17.9h.6c4.3 0 6 1.3 6 5.5s-1.9 5.9-5.5 5.9h-1V21.4zm-44.1 10c0 4.3 2.9 7.3 7.1 7.3 3.9 0 7-3.2 7-7.3 0-4.2-3-7.3-7-7.3-4.1 0-7.1 3.2-7.1 7.3zm10.9-.1c0 3.1-.9 6.1-3.8 6.1-3 0-3.9-3-3.9-6 0-3.2 1-6 3.9-6 2.7 0 3.8 2.9 3.8 5.9zm-52.5 5.3v.8H25v-.8c-.9 0-1.4-.6-2-2.4-1.2-3.5-2.4-7.1-3.7-10.6h-3.5v.8c.7 0 1 .3 1.1.8l-3.3 10c-.4 1.2-.9 1.6-2 1.6v.8h4.3v-.8c-.7 0-1.1-.3-1.1-.8 0-.4.1-.8.2-1.1l.4-1.4h4.3c.2.7.4 1.6.4 1.6.1.3.2.7.2 1.1.1.1-.1.4-1.2.4zM15.8 32l1.7-5.4 1.8 5.4h-3.5z"/></svg>