<svg xmlns="http://www.w3.org/2000/svg" viewBox="0 0 52.9 43.3"><path d="M44.3 31.3l-7.8.3 3.1 4.4c-3.4.7-6.6-2.2-6.5-5.5.1-3.4 2.8-5.9 6-5.8 4.2 0 7.1 3.9 5.9 7.5l-.7-.9zM26 32c.8 5.8 5.8 11.3 12.9 11.3 3.1 0 5.3-1.3 5.6-1.5l.8 1.1 7.6-.4-3.2-4.5s2.4-3.1 2.4-7.1c0-7.9-5.5-13.1-13.3-13.1C32 17.7 26.6 23 26 29.2l-.1-.6h-12v6h3.3c0 .1-1.7 1.8-4.2 1.8-2.8 0-5.9-2.2-5.9-5.7-.1-3.6 3.1-6 6-5.9 2.3.1 3.2.8 4.5 2h7.8c-.7-2.6-4.2-9-12.4-9-7.6 0-13 6.2-13 12.6 0 7.5 5.8 12.9 13.1 12.9 8 0 12.4-6.5 12.9-11.3z"/></svg>